$MeshFormat
2.2 0 8
$EndMeshFormat
$PhysicalNames
6
1 14 "wall"
1 15 "outlet"
1 16 "bottom"
1 17 "empty"
2 12 "injection"
2 13 "surface"
$EndPhysicalNames
$Nodes
269
1 0 0 0
2 0.2 0 0
3 0.2 0.45 0
4 0 0.45 0
5 0.08 0.01 0
6 0.12 0.01 0
7 0.12 0.03 0
8 0.08 0.03 0
9 0.02857142857142862 0 0
10 0.05714285714285725 0 0
11 0.0857142857142858 0 0
12 0.1142857142857144 0 0
13 0.1428571428571429 0 0
14 0.1714285714285715 0 0
15 0.06000000000000001 0.007500000000000001 0
16 0.04000000000000004 0.005000000000000005 0
17 0.02000000000000005 0.002500000000000006 0
18 0.09333333333333332 0.01 0
19 0.1066666666666667 0.01 0
20 0.14 0.007500000000000001 0
21 0.16 0.005000000000000005 0
22 0.18 0.002500000000000006 0
23 0.12 0.02333333333333334 0
24 0.12 0.01666666666666667 0
25 0.09333333333333332 0.03 0
26 0.1066666666666667 0.03 0
27 0.08 0.02333333333333334 0
28 0.08 0.01666666666666667 0
29 0 0.02368421052631575 0
30 0 0.04736842105263149 0
31 0 0.07105263157894723 0
32 0 0.09473684210526293 0
33 0 0.1184210526315787 0
34 0 0.1421052631578944 0
35 0 0.1657894736842101 0
36 0 0.1894736842105258 0
37 0 0.2131578947368415 0
38 0 0.2368421052631572 0
39 0 0.260526315789473 0
40 0 0.2842105263157889 0
41 0 0.3078947368421047 0
42 0 0.3315789473684206 0
43 0 0.3552631578947364 0
44 0 0.3789473684210524 0
45 0 0.4026315789473683 0
46 0 0.4263157894736841 0
47 0.1714285714285714 0.45 0
48 0.1428571428571428 0.45 0
49 0.1142857142857142 0.45 0
50 0.08571428571428563 0.45 0
51 0.05714285714285708 0.45 0
52 0.02857142857142855 0.45 0
53 0.2 0.4263157894736843 0
54 0.2 0.4026315789473685 0
55 0.2 0.3789473684210528 0
56 0.2 0.3552631578947371 0
57 0.2 0.3315789473684213 0
58 0.2 0.3078947368421057 0
59 0.2 0.2842105263157899 0
60 0.2 0.2605263157894742 0
61 0.2 0.2368421052631585 0
62 0.2 0.2131578947368428 0
63 0.2 0.189473684210527 0
64 0.2 0.1657894736842112 0
65 0.2 0.1421052631578953 0
66 0.2 0.1184210526315794 0
67 0.2 0.09473684210526356 0
68 0.2 0.07105263157894764 0
69 0.2 0.04736842105263173 0
70 0.2 0.02368421052631592 0
71 0.1957894736842105 0.4278947368421052 0
72 0.191578947368421 0.4057894736842105 0
73 0.1873684210526316 0.3836842105263157 0
74 0.1831578947368421 0.3615789473684209 0
75 0.1789473684210526 0.3394736842105261 0
76 0.1747368421052631 0.3173684210526314 0
77 0.1705263157894736 0.2952631578947366 0
78 0.1663157894736842 0.2731578947368418 0
79 0.1621052631578947 0.251052631578947 0
80 0.1578947368421052 0.2289473684210522 0
81 0.1536842105263157 0.2068421052631575 0
82 0.1494736842105263 0.1847368421052628 0
83 0.1452631578947368 0.1626315789473681 0
84 0.1410526315789473 0.1405263157894734 0
85 0.1368421052631579 0.1184210526315787 0
86 0.1326315789473684 0.09631578947368402 0
87 0.1284210526315789 0.07421052631578934 0
88 0.1242105263157895 0.05210526315789465 0
89 0.08577350269189626 0.02 0
90 0.1142264973081037 0.02 0
91 0.09999999999999999 0.02 0
92 0.1588171431305086 0.3329009797964643 0
93 0.1454190081291423 0.2676389470200093 0
94 0.02056538775687013 0.3204121794150639 0
95 0.01993223615173632 0.2247069203979927 0
96 0.02021717712721847 0.08298598788501069 0
97 0.1262321237084461 0.1569491534372543 0
98 0.08716935821711924 0.03863475769956584 0
99 0.07714214004921592 0.03891303427093282 0
100 0.08247158180091055 0.04786991268613369 0
101 0.0994348944073236 0.4205684129101692 0
102 0.02406520564652929 0.1318429500937496 0
103 0.02100734787201835 0.2697593571899669 0
104 0.01851852992889785 0.1780648309383702 0
105 0.01975373751155829 0.3656157417764139 0
106 0.1380828495313891 0.2223431538302859 0
107 0.1201496047558009 0.1104539843316892 0
108 0.07139464245883492 0.04753717343090719 0
109 0.07739538243701875 0.05816568478517997 0
110 0.1661194384426598 0.3762780017001449 0
111 0.06465229353223484 0.05786888604733686 0
112 0.07105341349439694 0.07001721252635634 0
113 0.05861522941355696 0.04581978963585301 0
114 0.07478423465478534 0.02596004423216106 0
115 0.08580130556869289 0.06980106762279989 0
116 0.07875897670187208 0.08385889455539031 0
117 0.05933727478719727 0.08313739516659871 0
118 0.06963180909921085 0.09946597589125211 0
119 0.04373604708462311 0.4247000682430588 0
120 0.05018461125170211 0.0576651049545695 0
121 0.04383575155072134 0.04364036529518101 0
122 0.05308423977787338 0.1007298456935292 0
123 0.06026768400938082 0.1169388697726063 0
124 0.09260069942883825 0.04675732479854042 0
125 0.05241895952038644 0.033738109555809 0
126 0.09577236979441861 0.08273154919100237 0
127 0.1548718872951699 0.4250875442533762 0
128 0.0796029183670445 0.1163210376820139 0
129 0.07012956282174107 0.1349412197986927 0
130 0.09186616799631503 0.1350618897644589 0
131 0.08082346379129768 0.154234038702757 0
132 0.05925710972582848 0.1536904705606629 0
133 0.06969202572558973 0.1736850544991498 0
134 0.09217784786145963 0.1740364107965329 0
135 0.080893532004515 0.1935945814895841 0
136 0.05801560449289274 0.1933902874772769 0
137 0.06841461701762572 0.213333465533934 0
138 0.09221546164463755 0.2134423478136739 0
139 0.0806130551852524 0.233313636768646 0
140 0.05774680448704785 0.2332046019544428 0
141 0.06918854930778283 0.2532284043039585 0
142 0.09223404834922018 0.2532713347736151 0
143 0.08074331869067393 0.2731916274119177 0
144 0.1035079659528782 0.2733372045806039 0
145 0.09220337174764649 0.2931489864915742 0
146 0.1149866296046554 0.2932934507286892 0
147 0.1037865415050659 0.3130077170919205 0
148 0.08051862029139184 0.3131938840073829 0
149 0.09259596112878916 0.3337350478698562 0
150 0.06869743384346712 0.3336422455724328 0
151 0.08064636407954338 0.3545080076344458 0
152 0.1050843827736617 0.3545223152537291 0
153 0.09191242720320381 0.3751836218795056 0
154 0.06805882971657123 0.3757805980726077 0
155 0.1166948391081345 0.3768779509611103 0
156 0.05796944430945299 0.3127298276054668 0
157 0.05853108145104588 0.2735688391025518 0
158 0.03585744416528873 0.05598092173235855 0
159 0.1274644465238469 0.312392718689852 0
160 0.1132072131726445 0.2544324249454356 0
161 0.02999226382504142 0.02171427769454251 0
162 0.1274279603995819 0.3527821904836079 0
163 0.04142653826792067 0.07251832493186286 0
164 0.08096915988832193 0.3980525607799223 0
165 0.1373005010596673 0.2913819489525884 0
166 0.04264719858715715 0.3328127997756822 0
167 0.1032119882094014 0.06656374025721309 0
168 0.05607839892235084 0.4001681134522417 0
169 0.02008903317053173 0.1054653408212298 0
170 0.1283147148669697 0.4250159207139266 0
171 0.1422810506355163 0.4032093311405927 0
172 0.1184113488758795 0.4015098368905009 0
173 0.07051260719329369 0.4239148592308987 0
174 0.03042852431995918 0.4018417860674787 0
175 0.02580658107115223 0.04131184182483952 0
176 0.01905045087616503 0.1558849221666856 0
177 0.01954133817194477 0.2016779308198104 0
178 0.0427833172331801 0.213255482718974 0
179 0.1429900234574767 0.370761137260077 0
180 0.1027751069466466 0.2339277023115111 0
181 0.1177780713483441 0.2140515899438229 0
182 0.1041777846194941 0.1940338781088829 0
183 0.1263184518506628 0.1916492823489387 0
184 0.02080652720360878 0.24666495796176 0
185 0.02357190702433035 0.2944365679888086 0
186 0.04880626575841359 0.1340662403175293 0
187 0.0434480928423636 0.2553121506520857 0
188 0.1674435892403259 0.4015919206630524 0
189 0.0494466757227576 0.171629827729881 0
190 0.1627689860766738 0.354438542905298 0
191 0.1525080501262763 0.3097545231692506 0
192 0.1429897772131071 0.2437450547252676 0
193 0.1186553922880458 0.1329358844598852 0
194 0.01993361944230817 0.3434833591832917 0
195 0.06947313044938996 0.2931215233813735 0
196 0.05664364406398878 0.3542249686913794 0
197 0.04076684809711739 0.3769841735191442 0
198 0.1155998534490028 0.3328717175066215 0
199 0.03962794669564088 0.1155973602567471 0
200 0.04768387176158576 0.2932899930945981 0
201 0.1150451017153435 0.1750258018428739 0
202 0.1041333495601513 0.154707196500627 0
203 0.06676521619099966 0.03726118409468218 0
204 0.1245564375672111 0.2731887057929904 0
205 0.08920612742700816 0.09779840498492323 0
206 0.1115290495922837 0.09148682220718604 0
207 0.1372398283630715 0.3307903156507633 0
208 0.1111060315077069 0.04027977608364816 0
209 0.1762224938033398 0.4220727350885489 0
210 0.03675572492997919 0.1873564672312474 0
211 0.01961391361922765 0.06271363624274287 0
212 0.05751442962374353 0.06836637076828966 0
213 0.02135115161915691 0.4226540679944191 0
214 0.03723294704337082 0.09030058861964865 0
215 0.03738072457138537 0.2347954568901953 0
216 0.124345419127193 0.2375719584957789 0
217 0.07378245709528866 0.01887698788822231 0
218 0.06408821928287393 0.02466342664566726 0
219 0.03949008565136098 0.1513865714227176 0
220 0.03802227607859741 0.3104213676140947 0
221 0.03594900954042596 0.3546242085891823 0
222 0.1007260709059902 0.1137296832592864 0
223 0.09961981749232507 0.03912868911460388 0
224 0.103243109254024 0.0504705216264261 0
225 0.03884846019026879 0.2772733816056022 0
226 0.1324665038759431 0.1741985317363396 0
227 0.0451101341239674 0.02034447130451936 0
228 0.01818982198572698 0.3852041297462915 0
229 0.154886954952322 0.2867884496832667 0
230 0.1458487882854625 0.3483346332192421 0
231 0.09019370105560537 0.05700003083431768 0
232 0.07434183967469142 0.03313355449413863 0
233 0.1326932695607706 0.3885869061519017 0
234 0.1008419574095459 0.3941221326582853 0
235 0.03856866126946384 0.03211288700412127 0
236 0.01515976897923875 0.02731575021966587 0
237 0.1537061168927705 0.3894316045750065 0
238 0.1312394965510263 0.2569318252183505 0
239 0.03244490923001331 0.1675204846187883 0
240 0.1373679689793669 0.2047043313246152 0
241 0.1441660498856124 0.06033681059305995 0
242 0.1298646262102409 0.02642767730534307 0
243 0.1538805615573401 0.1037219982998548 0
244 0.1825384064299202 0.03539276453578749 0
245 0.152165063509461 0.02357050807568878 0
246 0.1802188712308234 0.1327945365414866 0
247 0.1810614466244464 0.0815351683196967 0
248 0.1645008605880404 0.170452199398905 0
249 0.1794888720156318 0.2013157894736849 0
250 0.1810685457101859 0.05801879394362827 0
251 0.1767328497359234 0.1067715647465455 0
252 0.1486594521300853 0.08185845891986593 0
253 0.1617458546646725 0.1479983448334832 0
254 0.1800579830917969 0.2240142707009324 0
255 0.1582184517169784 0.1252836168320661 0
256 0.1385435679692824 0.03687776649524302 0
257 0.161604210688566 0.04314183433969498 0
258 0.1814079862314785 0.1568483656744833 0
259 0.1828289473684211 0.2486842105263164 0
260 0.1703036687884799 0.02115535474830363 0
261 0.1819564642227489 0.1798014391358503 0
262 0.1631404858437857 0.068445525449567 0
263 0.1850532992466589 0.2733959534404529 0
264 0.1658208183126526 0.1886296750753721 0
265 0.1643546216063115 0.08981986497485502 0
266 0.1389282654315143 0.0212030012819428 0
267 0.1293516588741512 0.01711282011379056 0
268 0.1872233408384842 0.2959417214191695 0
269 0.1855143321029322 0.01732702153865059 0
$EndNodes
$Elements
575
1 1 2 16 1 1 9
2 1 2 16 1 9 10
3 1 2 16 1 10 11
4 1 2 16 1 11 12
5 1 2 16 1 12 13
6 1 2 16 1 13 14
7 1 2 16 1 14 2
8 1 2 17 2 5 15
9 1 2 17 2 15 16
10 1 2 17 2 16 17
11 1 2 17 2 17 1
12 1 2 17 3 5 18
13 1 2 17 3 18 19
14 1 2 17 3 19 6
15 1 2 17 4 6 20
16 1 2 17 4 20 21
17 1 2 17 4 21 22
18 1 2 17 4 22 2
19 1 2 17 5 7 23
20 1 2 17 5 23 24
21 1 2 17 5 24 6
22 1 2 17 6 8 25
23 1 2 17 6 25 26
24 1 2 17 6 26 7
25 1 2 17 7 8 27
26 1 2 17 7 27 28
27 1 2 17 7 28 5
28 1 2 14 8 1 29
29 1 2 14 8 29 30
30 1 2 14 8 30 31
31 1 2 14 8 31 32
32 1 2 14 8 32 33
33 1 2 14 8 33 34
34 1 2 14 8 34 35
35 1 2 14 8 35 36
36 1 2 14 8 36 37
37 1 2 14 8 37 38
38 1 2 14 8 38 39
39 1 2 14 8 39 40
40 1 2 14 8 40 41
41 1 2 14 8 41 42
42 1 2 14 8 42 43
43 1 2 14 8 43 44
44 1 2 14 8 44 45
45 1 2 14 8 45 46
46 1 2 14 8 46 4
47 1 2 15 9 3 47
48 1 2 15 9 47 48
49 1 2 15 9 48 49
50 1 2 15 9 49 50
51 1 2 15 9 50 51
52 1 2 15 9 51 52
53 1 2 15 9 52 4
54 1 2 14 10 3 53
55 1 2 14 10 53 54
56 1 2 14 10 54 55
57 1 2 14 10 55 56
58 1 2 14 10 56 57
59 1 2 14 10 57 58
60 1 2 14 10 58 59
61 1 2 14 10 59 60
62 1 2 14 10 60 61
63 1 2 14 10 61 62
64 1 2 14 10 62 63
65 1 2 14 10 63 64
66 1 2 14 10 64 65
67 1 2 14 10 65 66
68 1 2 14 10 66 67
69 1 2 14 10 67 68
70 1 2 14 10 68 69
71 1 2 14 10 69 70
72 1 2 14 10 70 2
73 1 2 17 11 3 71
74 1 2 17 11 71 72
75 1 2 17 11 72 73
76 1 2 17 11 73 74
77 1 2 17 11 74 75
78 1 2 17 11 75 76
79 1 2 17 11 76 77
80 1 2 17 11 77 78
81 1 2 17 11 78 79
82 1 2 17 11 79 80
83 1 2 17 11 80 81
84 1 2 17 11 81 82
85 1 2 17 11 82 83
86 1 2 17 11 83 84
87 1 2 17 11 84 85
88 1 2 17 11 85 86
89 1 2 17 11 86 87
90 1 2 17 11 87 88
91 1 2 17 11 88 7
92 2 2 13 1 19 12 6
93 2 2 13 1 18 5 11
94 2 2 13 1 17 1 9
95 2 2 13 1 14 2 22
96 2 2 13 1 11 5 10
97 2 2 13 1 10 5 15
98 2 2 13 1 6 12 13
99 2 2 13 1 6 13 20
100 2 2 13 1 10 16 9
101 2 2 13 1 9 16 17
102 2 2 13 1 18 11 19
103 2 2 13 1 21 13 14
104 2 2 13 1 21 14 22
105 2 2 13 1 15 16 10
106 2 2 13 1 11 12 19
107 2 2 13 1 20 13 21
108 2 2 12 2 26 91 90
109 2 2 12 2 90 91 19
110 2 2 12 2 18 91 89
111 2 2 12 2 89 91 25
112 2 2 12 2 25 91 26
113 2 2 12 2 19 91 18
114 2 2 12 2 28 89 27
115 2 2 12 2 23 90 24
116 2 2 12 2 18 89 5
117 2 2 12 2 5 89 28
118 2 2 12 2 6 90 19
119 2 2 12 2 24 90 6
120 2 2 12 2 7 90 23
121 2 2 12 2 26 90 7
122 2 2 12 2 8 89 25
123 2 2 12 2 27 89 8
124 2 2 13 3 193 222 130
125 2 2 13 3 218 227 125
126 2 2 13 3 167 206 87
127 2 2 13 3 8 98 25
128 2 2 13 3 17 236 161
129 2 2 13 3 52 213 4
130 2 2 13 3 103 187 184
131 2 2 13 3 1 29 17
132 2 2 13 3 103 225 187
133 2 2 13 3 71 47 3
134 2 2 13 3 29 236 17
135 2 2 13 3 30 211 175
136 2 2 13 3 163 214 117
137 2 2 13 3 126 206 167
138 2 2 13 3 15 227 218
139 2 2 13 3 71 209 47
140 2 2 13 3 205 222 206
141 2 2 13 3 205 206 126
142 2 2 13 3 88 167 87
143 2 2 13 3 102 219 186
144 2 2 13 3 130 202 193
145 2 2 13 3 107 222 193
146 2 2 13 3 8 99 98
147 2 2 13 3 164 173 101
148 2 2 13 3 119 173 168
149 2 2 13 3 117 214 122
150 2 2 13 3 163 211 96
151 2 2 13 3 199 214 169
152 2 2 13 3 136 178 137
153 2 2 13 3 158 211 163
154 2 2 13 3 137 178 140
155 2 2 13 3 168 197 174
156 2 2 13 3 186 199 102
157 2 2 13 3 7 208 88
158 2 2 13 3 101 234 164
159 2 2 13 3 190 230 179
160 2 2 13 3 15 218 217
161 2 2 13 3 88 224 167
162 2 2 13 3 168 173 164
163 2 2 13 3 197 228 174
164 2 2 13 3 110 188 73
165 2 2 13 3 122 214 199
166 2 2 13 3 73 188 72
167 2 2 13 3 94 194 166
168 2 2 13 3 93 204 165
169 2 2 13 3 218 232 114
170 2 2 13 3 168 174 119
171 2 2 13 3 45 213 174
172 2 2 13 3 159 207 191
173 2 2 13 3 175 211 158
174 2 2 13 3 110 190 179
175 2 2 13 3 176 219 102
176 2 2 13 3 165 229 93
177 2 2 13 3 179 230 162
178 2 2 13 3 32 169 96
179 2 2 13 3 159 191 165
180 2 2 13 3 193 202 97
181 2 2 13 3 200 225 185
182 2 2 13 3 175 236 30
183 2 2 13 3 127 171 170
184 2 2 13 3 46 213 45
185 2 2 13 3 117 212 163
186 2 2 13 3 206 222 107
187 2 2 13 3 169 214 96
188 2 2 13 3 172 234 101
189 2 2 13 3 127 170 48
190 2 2 13 3 203 232 218
191 2 2 13 3 166 220 94
192 2 2 13 3 47 209 127
193 2 2 13 3 32 96 31
194 2 2 13 3 51 173 119
195 2 2 13 3 201 202 134
196 2 2 13 3 102 199 169
197 2 2 13 3 191 207 92
198 2 2 13 3 170 172 101
199 2 2 13 3 185 225 103
200 2 2 13 3 102 169 33
201 2 2 13 3 149 198 147
202 2 2 13 3 47 127 48
203 2 2 13 3 49 170 101
204 2 2 13 3 171 172 170
205 2 2 13 3 34 176 102
206 2 2 13 3 33 169 32
207 2 2 13 3 147 198 159
208 2 2 13 3 96 214 163
209 2 2 13 3 101 173 50
210 2 2 13 3 174 228 45
211 2 2 13 3 51 119 52
212 2 2 13 3 127 188 171
213 2 2 13 3 48 170 49
214 2 2 13 3 105 228 197
215 2 2 13 3 49 101 50
216 2 2 13 3 155 162 152
217 2 2 13 3 97 202 201
218 2 2 13 3 36 177 104
219 2 2 13 3 34 102 33
220 2 2 13 3 50 173 51
221 2 2 13 3 104 176 35
222 2 2 13 3 17 161 16
223 2 2 13 3 203 218 125
224 2 2 13 3 36 104 35
225 2 2 13 3 35 176 34
226 2 2 13 3 159 165 146
227 2 2 13 3 95 178 177
228 2 2 13 3 180 181 138
229 2 2 13 3 135 182 134
230 2 2 13 3 152 198 149
231 2 2 13 3 139 180 138
232 2 2 13 3 38 184 95
233 2 2 13 3 95 177 37
234 2 2 13 3 155 179 162
235 2 2 13 3 40 185 103
236 2 2 13 3 136 210 178
237 2 2 13 3 138 182 135
238 2 2 13 3 144 160 142
239 2 2 13 3 37 177 36
240 2 2 13 3 181 183 182
241 2 2 13 3 142 180 139
242 2 2 13 3 103 184 39
243 2 2 13 3 181 182 138
244 2 2 13 3 148 156 150
245 2 2 13 3 94 185 41
246 2 2 13 3 38 95 37
247 2 2 13 3 160 180 142
248 2 2 13 3 143 144 142
249 2 2 13 3 40 103 39
250 2 2 13 3 42 94 41
251 2 2 13 3 141 142 139
252 2 2 13 3 145 146 144
253 2 2 13 3 39 184 38
254 2 2 13 3 41 185 40
255 2 2 13 3 178 215 140
256 2 2 13 3 137 138 135
257 2 2 13 3 141 143 142
258 2 2 13 3 143 145 144
259 2 2 13 3 154 197 168
260 2 2 13 3 86 107 85
261 2 2 13 3 147 159 146
262 2 2 13 3 137 139 138
263 2 2 13 3 185 220 200
264 2 2 13 3 85 193 84
265 2 2 13 3 42 194 94
266 2 2 13 3 76 92 75
267 2 2 13 3 148 195 156
268 2 2 13 3 79 93 78
269 2 2 13 3 80 192 79
270 2 2 13 3 81 106 80
271 2 2 13 3 77 191 76
272 2 2 13 3 84 97 83
273 2 2 13 3 156 166 150
274 2 2 13 3 140 141 139
275 2 2 13 3 107 193 85
276 2 2 13 3 43 194 42
277 2 2 13 3 141 157 143
278 2 2 13 3 182 201 134
279 2 2 13 3 136 137 135
280 2 2 13 3 133 135 134
281 2 2 13 3 84 193 97
282 2 2 13 3 140 187 141
283 2 2 13 3 79 192 93
284 2 2 13 3 137 140 139
285 2 2 13 3 76 191 92
286 2 2 13 3 106 192 80
287 2 2 13 3 141 187 157
288 2 2 13 3 133 136 135
289 2 2 13 3 133 134 131
290 2 2 13 3 153 155 152
291 2 2 13 3 145 147 146
292 2 2 13 3 44 105 43
293 2 2 13 3 162 198 152
294 2 2 13 3 132 189 133
295 2 2 13 3 133 189 136
296 2 2 13 3 143 195 145
297 2 2 13 3 151 152 149
298 2 2 13 3 87 206 86
299 2 2 13 3 157 195 143
300 2 2 13 3 105 194 43
301 2 2 13 3 145 148 147
302 2 2 13 3 75 190 74
303 2 2 13 3 187 215 184
304 2 2 13 3 145 195 148
305 2 2 13 3 132 133 131
306 2 2 13 3 92 190 75
307 2 2 13 3 129 132 131
308 2 2 13 3 148 150 149
309 2 2 13 3 119 213 52
310 2 2 13 3 166 196 150
311 2 2 13 3 194 221 166
312 2 2 13 3 151 154 153
313 2 2 13 3 165 204 146
314 2 2 13 3 154 168 164
315 2 2 13 3 144 204 160
316 2 2 13 3 31 211 30
317 2 2 13 3 151 196 154
318 2 2 13 3 183 240 82
319 2 2 13 3 74 110 73
320 2 2 13 3 148 149 147
321 2 2 13 3 113 203 125
322 2 2 13 3 151 153 152
323 2 2 13 3 129 186 132
324 2 2 13 3 196 197 154
325 2 2 13 3 129 131 130
326 2 2 13 3 154 164 153
327 2 2 13 3 210 239 104
328 2 2 13 3 150 151 149
329 2 2 13 3 134 202 131
330 2 2 13 3 150 196 151
331 2 2 13 3 123 186 129
332 2 2 13 3 129 130 128
333 2 2 13 3 189 239 210
334 2 2 13 3 124 231 224
335 2 2 13 3 74 190 110
336 2 2 13 3 16 227 15
337 2 2 13 3 183 201 182
338 2 2 13 3 98 223 25
339 2 2 13 3 181 216 106
340 2 2 13 3 195 200 156
341 2 2 13 3 162 207 198
342 2 2 13 3 180 216 181
343 2 2 13 3 157 200 195
344 2 2 13 3 123 199 186
345 2 2 13 3 156 220 166
346 2 2 13 3 131 202 130
347 2 2 13 3 224 231 167
348 2 2 13 3 123 128 118
349 2 2 13 3 122 199 123
350 2 2 13 3 123 129 128
351 2 2 13 3 132 219 189
352 2 2 13 3 146 204 144
353 2 2 13 3 110 237 188
354 2 2 13 3 130 222 128
355 2 2 13 3 113 125 121
356 2 2 13 3 155 234 172
357 2 2 13 3 177 210 104
358 2 2 13 3 122 123 118
359 2 2 13 3 97 226 83
360 2 2 13 3 106 240 181
361 2 2 13 3 82 240 81
362 2 2 13 3 93 229 78
363 2 2 13 3 77 229 191
364 2 2 13 3 181 240 183
365 2 2 13 3 191 229 165
366 2 2 13 3 187 225 157
367 2 2 13 3 82 226 183
368 2 2 13 3 45 228 44
369 2 2 13 3 96 211 31
370 2 2 13 3 86 206 107
371 2 2 13 3 126 167 115
372 2 2 13 3 117 122 118
373 2 2 13 3 158 163 120
374 2 2 13 3 178 210 177
375 2 2 13 3 184 215 95
376 2 2 13 3 124 223 98
377 2 2 13 3 174 213 119
378 2 2 13 3 188 209 72
379 2 2 13 3 201 226 97
380 2 2 13 3 112 117 116
381 2 2 13 3 95 215 178
382 2 2 13 3 128 205 118
383 2 2 13 3 166 221 196
384 2 2 13 3 30 236 29
385 2 2 13 3 94 220 185
386 2 2 13 3 153 234 155
387 2 2 13 3 116 126 115
388 2 2 13 3 99 203 108
389 2 2 13 3 117 118 116
390 2 2 13 3 121 175 158
391 2 2 13 3 198 207 159
392 2 2 13 3 108 111 109
393 2 2 13 3 116 205 126
394 2 2 13 3 108 113 111
395 2 2 13 3 118 205 116
396 2 2 13 3 121 158 120
397 2 2 13 3 189 210 136
398 2 2 13 3 172 233 155
399 2 2 13 3 72 209 71
400 2 2 13 3 160 216 180
401 2 2 13 3 112 116 115
402 2 2 13 3 167 231 115
403 2 2 13 3 113 121 120
404 2 2 13 3 99 108 100
405 2 2 13 3 140 215 187
406 2 2 13 3 106 216 192
407 2 2 13 3 112 115 109
408 2 2 13 3 163 212 120
409 2 2 13 3 111 112 109
410 2 2 13 3 162 230 207
411 2 2 13 3 197 221 105
412 2 2 13 3 26 208 7
413 2 2 13 3 161 227 16
414 2 2 13 3 186 219 132
415 2 2 13 3 113 120 111
416 2 2 13 3 196 221 197
417 2 2 13 3 127 209 188
418 2 2 13 3 108 109 100
419 2 2 13 3 171 233 172
420 2 2 13 3 105 221 194
421 2 2 13 3 99 100 98
422 2 2 13 3 125 235 121
423 2 2 13 3 208 224 88
424 2 2 13 3 25 223 26
425 2 2 13 3 216 238 192
426 2 2 13 3 83 226 82
427 2 2 13 3 179 237 110
428 2 2 13 3 8 232 99
429 2 2 13 3 175 235 161
430 2 2 13 3 108 203 113
431 2 2 13 3 160 238 216
432 2 2 13 3 233 237 179
433 2 2 13 3 204 238 160
434 2 2 13 3 78 229 77
435 2 2 13 3 104 239 176
436 2 2 13 3 219 239 189
437 2 2 13 3 200 220 156
438 2 2 13 3 112 212 117
439 2 2 13 3 109 231 100
440 2 2 13 3 44 228 105
441 2 2 13 3 183 226 201
442 2 2 13 3 188 237 171
443 2 2 13 3 157 225 200
444 2 2 13 3 161 236 175
445 2 2 13 3 81 240 106
446 2 2 13 3 92 230 190
447 2 2 13 3 128 222 205
448 2 2 13 3 192 238 93
449 2 2 13 3 171 237 233
450 2 2 13 3 155 233 179
451 2 2 13 3 120 212 111
452 2 2 13 3 227 235 125
453 2 2 13 3 26 223 208
454 2 2 13 3 27 114 8
455 2 2 13 3 164 234 153
456 2 2 13 3 111 212 112
457 2 2 13 3 99 232 203
458 2 2 13 3 100 124 98
459 2 2 13 3 28 217 27
460 2 2 13 3 93 238 204
461 2 2 13 3 100 231 124
462 2 2 13 3 121 235 175
463 2 2 13 3 115 231 109
464 2 2 13 3 207 230 92
465 2 2 13 3 124 224 223
466 2 2 13 3 223 224 208
467 2 2 13 3 217 218 114
468 2 2 13 3 176 239 219
469 2 2 13 3 161 235 227
470 2 2 13 3 27 217 114
471 2 2 13 3 114 232 8
472 2 2 13 3 4 213 46
473 2 2 13 3 15 217 5
474 2 2 13 3 5 217 28
475 2 2 13 4 80 259 79
476 2 2 13 4 249 254 81
477 2 2 13 4 254 259 80
478 2 2 13 4 81 254 80
479 2 2 13 4 24 267 23
480 2 2 13 4 56 74 75
481 2 2 13 4 57 76 58
482 2 2 13 4 56 75 57
483 2 2 13 4 245 260 257
484 2 2 13 4 251 255 243
485 2 2 13 4 57 75 76
486 2 2 13 4 79 259 78
487 2 2 13 4 259 263 78
488 2 2 13 4 246 255 251
489 2 2 13 4 245 257 256
490 2 2 13 4 6 267 24
491 2 2 13 4 242 266 256
492 2 2 13 4 257 260 244
493 2 2 13 4 256 266 245
494 2 2 13 4 78 263 77
495 2 2 13 4 263 268 77
496 2 2 13 4 76 268 58
497 2 2 13 4 246 258 253
498 2 2 13 4 64 261 258
499 2 2 13 4 65 258 246
500 2 2 13 4 21 245 20
501 2 2 13 4 250 257 244
502 2 2 13 4 247 250 68
503 2 2 13 4 69 244 70
504 2 2 13 4 69 250 244
505 2 2 13 4 67 251 247
506 2 2 13 4 62 249 63
507 2 2 13 4 253 255 246
508 2 2 13 4 246 251 66
509 2 2 13 4 65 246 66
510 2 2 13 4 67 247 68
511 2 2 13 4 68 250 69
512 2 2 13 4 81 264 249
513 2 2 13 4 66 251 67
514 2 2 13 4 61 259 254
515 2 2 13 4 88 241 87
516 2 2 13 4 87 252 86
517 2 2 13 4 61 254 62
518 2 2 13 4 86 243 85
519 2 2 13 4 84 253 83
520 2 2 13 4 258 261 248
521 2 2 13 4 83 248 82
522 2 2 13 4 241 252 87
523 2 2 13 4 86 252 243
524 2 2 13 4 62 254 249
525 2 2 13 4 83 253 248
526 2 2 13 4 250 262 257
527 2 2 13 4 85 255 84
528 2 2 13 4 243 255 85
529 2 2 13 4 243 265 251
530 2 2 13 4 84 255 253
531 2 2 13 4 77 268 76
532 2 2 13 4 70 269 2
533 2 2 13 4 2 269 22
534 2 2 13 4 247 262 250
535 2 2 13 4 63 261 64
536 2 2 13 4 64 258 65
537 2 2 13 4 22 260 21
538 2 2 13 4 88 256 241
539 2 2 13 4 245 266 20
540 2 2 13 4 21 260 245
541 2 2 13 4 256 257 241
542 2 2 13 4 60 259 61
543 2 2 13 4 253 258 248
544 2 2 13 4 257 262 241
545 2 2 13 4 251 265 247
546 2 2 13 4 23 267 242
547 2 2 13 4 60 263 259
548 2 2 13 4 247 265 262
549 2 2 13 4 82 264 81
550 2 2 13 4 249 261 63
551 2 2 13 4 244 269 70
552 2 2 13 4 241 262 252
553 2 2 13 4 59 263 60
554 2 2 13 4 59 268 263
555 2 2 13 4 248 264 82
556 2 2 13 4 262 265 252
557 2 2 13 4 58 268 59
558 2 2 13 4 252 265 243
559 2 2 13 4 22 269 260
560 2 2 13 4 261 264 248
561 2 2 13 4 260 269 244
562 2 2 13 4 249 264 261
563 2 2 13 4 242 267 266
564 2 2 13 4 266 267 20
565 2 2 13 4 23 242 7
566 2 2 13 4 20 267 6
567 2 2 13 4 53 3 71
568 2 2 13 4 7 256 88
569 2 2 13 4 242 256 7
570 2 2 13 4 53 72 54
571 2 2 13 4 71 72 53
572 2 2 13 4 54 73 55
573 2 2 13 4 72 73 54
574 2 2 13 4 55 74 56
575 2 2 13 4 55 73 74
$EndElements
