solid Created by Gmsh
facet normal -0 0 1
  outer loop
    vertex 0.19897580423946 0.1893672748204461 0
    vertex 0.2092542885993769 0.17659126500191 0
    vertex 0.2126763198394145 0.1915505060121367 0
  endloop
endfacet
facet normal 0 0 1
  outer loop
    vertex 0.1810970980056028 0.2073990232234317 0
    vertex 0.1717185928629832 0.2145644973871449 0
    vertex 0.1660822833453333 0.1999575700199358 0
  endloop
endfacet
facet normal 0 0 1
  outer loop
    vertex 0.1810970980056028 0.2073990232234317 0
    vertex 0.1660822833453333 0.1999575700199358 0
    vertex 0.1795213018570231 0.1966080502392325 0
  endloop
endfacet
facet normal 0 0 1
  outer loop
    vertex 0.19897580423946 0.1893672748204461 0
    vertex 0.1946035277552009 0.1766652183631751 0
    vertex 0.2092542885993769 0.17659126500191 0
  endloop
endfacet
facet normal 0 -0 1
  outer loop
    vertex 0.1660822833453333 0.1999575700199358 0
    vertex 0.1717185928629832 0.2145644973871449 0
    vertex 0.1612691614254031 0.2122391099140172 0
  endloop
endfacet
facet normal 0 -0 1
  outer loop
    vertex 0.1504657026981835 0.1931916675451874 0
    vertex 0.1660822833453333 0.1999575700199358 0
    vertex 0.1504657026981834 0.2068083324548121 0
  endloop
endfacet
facet normal 0 0 1
  outer loop
    vertex 0.2126389993899521 0.2355627359415202 0
    vertex 0.2029977613598388 0.2402669081817431 0
    vertex 0.1992909141473303 0.2275641871909601 0
  endloop
endfacet
facet normal 0 0 1
  outer loop
    vertex 0.1837563754391509 0.2330839638039909 0
    vertex 0.1838646810677794 0.2200746977600349 0
    vertex 0.1992909141473303 0.2275641871909601 0
  endloop
endfacet
facet normal 0 0 1
  outer loop
    vertex 0.2126763198394145 0.1915505060121367 0
    vertex 0.2092542885993769 0.17659126500191 0
    vertex 0.2224958449374024 0.1819099136828815 0
  endloop
endfacet
facet normal 0 0 1
  outer loop
    vertex 0.1992909141473303 0.2275641871909601 0
    vertex 0.1942096821118856 0.2380991411970402 0
    vertex 0.1837563754391509 0.2330839638039909 0
  endloop
endfacet
facet normal -0 0 1
  outer loop
    vertex 0.1992909141473303 0.2275641871909601 0
    vertex 0.2124191595522396 0.2248876591636091 0
    vertex 0.2126389993899521 0.2355627359415202 0
  endloop
endfacet
facet normal -0 0 1
  outer loop
    vertex 0.1504657026981834 0.2068083324548121 0
    vertex 0.1660822833453333 0.1999575700199358 0
    vertex 0.1612691614254031 0.2122391099140172 0
  endloop
endfacet
facet normal -0 0 1
  outer loop
    vertex 0.1612144354647789 0.2315543972163025 0
    vertex 0.1726822850987496 0.2262796006370421 0
    vertex 0.1711659838942565 0.240848494650522 0
  endloop
endfacet
facet normal 0 0 1
  outer loop
    vertex 0.1711659838942565 0.240848494650522 0
    vertex 0.1726822850987496 0.2262796006370421 0
    vertex 0.1837563754391509 0.2330839638039909 0
  endloop
endfacet
facet normal 0 0 1
  outer loop
    vertex 0.1946035277552009 0.1766652183631751 0
    vertex 0.1812384802197153 0.1743620203442775 0
    vertex 0.1919345452370633 0.1631793912761497 0
  endloop
endfacet
facet normal -0 0 1
  outer loop
    vertex 0.1626238836722522 0.187705878633836 0
    vertex 0.1743094987563598 0.1873509324899945 0
    vertex 0.1660822833453333 0.1999575700199358 0
  endloop
endfacet
facet normal 0 -0 1
  outer loop
    vertex 0.1992909141473303 0.2275641871909601 0
    vertex 0.2029977613598388 0.2402669081817431 0
    vertex 0.1942096821118856 0.2380991411970402 0
  endloop
endfacet
facet normal 0 -0 1
  outer loop
    vertex 0.1626238836722522 0.187705878633836 0
    vertex 0.1660822833453333 0.1999575700199358 0
    vertex 0.1504657026981835 0.1931916675451874 0
  endloop
endfacet
facet normal 0 -0 1
  outer loop
    vertex 0.2209824236033637 0.2181452215274043 0
    vertex 0.2223841034141815 0.2309239095101583 0
    vertex 0.2124191595522396 0.2248876591636091 0
  endloop
endfacet
facet normal 0 -0 1
  outer loop
    vertex 0.1837563754391509 0.2330839638039909 0
    vertex 0.1942096821118856 0.2380991411970402 0
    vertex 0.1832560193914506 0.247113046105941 0
  endloop
endfacet
facet normal -0 0 1
  outer loop
    vertex 0.1832560193914506 0.247113046105941 0
    vertex 0.1942096821118856 0.2380991411970402 0
    vertex 0.1965878793317664 0.249883438459527 0
  endloop
endfacet
facet normal 0 0 1
  outer loop
    vertex 0.25 0.2 0
    vertex 0.237718453883448 0.1965328847465191 0
    vertex 0.24814586436739 0.1865101614421488 0
  endloop
endfacet
facet normal 0 0 1
  outer loop
    vertex 0.24814586436739 0.1865101614421488 0
    vertex 0.237718453883448 0.1965328847465191 0
    vertex 0.2346173151749398 0.1849635781083267 0
  endloop
endfacet
facet normal 0 0 1
  outer loop
    vertex 0.1660822833453333 0.1999575700199358 0
    vertex 0.1743094987563598 0.1873509324899945 0
    vertex 0.1795213018570231 0.1966080502392325 0
  endloop
endfacet
facet normal 0 0 1
  outer loop
    vertex 0.2311331288920433 0.226011781294391 0
    vertex 0.2223841034141815 0.2309239095101583 0
    vertex 0.2209824236033637 0.2181452215274043 0
  endloop
endfacet
facet normal 0 0 1
  outer loop
    vertex 0.2346173151749398 0.1849635781083267 0
    vertex 0.2253204434493596 0.1947604801308851 0
    vertex 0.2224958449374024 0.1819099136828815 0
  endloop
endfacet
facet normal 0 0 1
  outer loop
    vertex 0.2253204434493596 0.1947604801308851 0
    vertex 0.2126763198394145 0.1915505060121367 0
    vertex 0.2224958449374024 0.1819099136828815 0
  endloop
endfacet
facet normal 0 0 1
  outer loop
    vertex 0.2253204434493596 0.1947604801308851 0
    vertex 0.2161704994153863 0.20477771103875 0
    vertex 0.2126763198394145 0.1915505060121367 0
  endloop
endfacet
facet normal 0 0 1
  outer loop
    vertex 0.2161704994153863 0.20477771103875 0
    vertex 0.2031752177840483 0.202303473232248 0
    vertex 0.2126763198394145 0.1915505060121367 0
  endloop
endfacet
facet normal 0 0 1
  outer loop
    vertex 0.2031752177840483 0.202303473232248 0
    vertex 0.19897580423946 0.1893672748204461 0
    vertex 0.2126763198394145 0.1915505060121367 0
  endloop
endfacet
facet normal 0 0 1
  outer loop
    vertex 0.2031752177840483 0.202303473232248 0
    vertex 0.1898163058035235 0.1997590124708815 0
    vertex 0.19897580423946 0.1893672748204461 0
  endloop
endfacet
facet normal 0 0 1
  outer loop
    vertex 0.1898163058035235 0.1997590124708815 0
    vertex 0.1860982567118817 0.1872722472927645 0
    vertex 0.19897580423946 0.1893672748204461 0
  endloop
endfacet
facet normal 0 0 1
  outer loop
    vertex 0.2031752177840483 0.202303473232248 0
    vertex 0.19414277970131 0.2124137979431557 0
    vertex 0.1898163058035235 0.1997590124708815 0
  endloop
endfacet
facet normal -0 0 1
  outer loop
    vertex 0.1860982567118817 0.1872722472927645 0
    vertex 0.1946035277552009 0.1766652183631751 0
    vertex 0.19897580423946 0.1893672748204461 0
  endloop
endfacet
facet normal 0 0 1
  outer loop
    vertex 0.1898163058035235 0.1997590124708815 0
    vertex 0.1795213018570231 0.1966080502392325 0
    vertex 0.1860982567118817 0.1872722472927645 0
  endloop
endfacet
facet normal 0 0 1
  outer loop
    vertex 0.1860982567118817 0.1872722472927645 0
    vertex 0.1812384802197153 0.1743620203442775 0
    vertex 0.1946035277552009 0.1766652183631751 0
  endloop
endfacet
facet normal 0 0 1
  outer loop
    vertex 0.1504657026981834 0.2068083324548121 0
    vertex 0.1612691614254031 0.2122391099140172 0
    vertex 0.1541394349247273 0.2199200544923119 0
  endloop
endfacet
facet normal 0 0 1
  outer loop
    vertex 0.2341276571609328 0.1634582017860939 0
    vertex 0.2217650223378954 0.16916598800259 0
    vertex 0.2230032518865578 0.1556057390798813 0
  endloop
endfacet
facet normal 0 0 1
  outer loop
    vertex 0.1965878793317668 0.150116561540473 0
    vertex 0.1919345452370633 0.1631793912761497 0
    vertex 0.1832560193914511 0.1528869538940588 0
  endloop
endfacet
facet normal 0 0 1
  outer loop
    vertex 0.24814586436739 0.1865101614421488 0
    vertex 0.2346173151749398 0.1849635781083267 0
    vertex 0.2427209702273245 0.1740208024982284 0
  endloop
endfacet
facet normal 0 -0 1
  outer loop
    vertex 0.1612144354647792 0.1684456027836971 0
    vertex 0.1675784258978401 0.1791727338045288 0
    vertex 0.1541394349247275 0.1800799455076877 0
  endloop
endfacet
facet normal -0 0 1
  outer loop
    vertex 0.1711659838942565 0.240848494650522 0
    vertex 0.1837563754391509 0.2330839638039909 0
    vertex 0.1832560193914506 0.247113046105941 0
  endloop
endfacet
facet normal 0 0 1
  outer loop
    vertex 0.2101728006526316 0.2489542043841162 0
    vertex 0.2126389993899521 0.2355627359415202 0
    vertex 0.2230032518865576 0.2443942609201188 0
  endloop
endfacet
facet normal 0 0 1
  outer loop
    vertex 0.2427209702273244 0.2259791975017717 0
    vertex 0.2347796928484112 0.2155562971222252 0
    vertex 0.24814586436739 0.2134898385578512 0
  endloop
endfacet
facet normal 0 0 1
  outer loop
    vertex 0.19414277970131 0.2124137979431557 0
    vertex 0.1810970980056028 0.2073990232234317 0
    vertex 0.1898163058035235 0.1997590124708815 0
  endloop
endfacet
facet normal 0 0 1
  outer loop
    vertex 0.1898163058035235 0.1997590124708815 0
    vertex 0.1810970980056028 0.2073990232234317 0
    vertex 0.1795213018570231 0.1966080502392325 0
  endloop
endfacet
facet normal 0 0 1
  outer loop
    vertex 0.2161704994153863 0.20477771103875 0
    vertex 0.2075042324674488 0.2147025465681795 0
    vertex 0.2031752177840483 0.202303473232248 0
  endloop
endfacet
facet normal 0 0 1
  outer loop
    vertex 0.2075042324674488 0.2147025465681795 0
    vertex 0.1992909141473303 0.2275641871909601 0
    vertex 0.19414277970131 0.2124137979431557 0
  endloop
endfacet
facet normal 0 -0 1
  outer loop
    vertex 0.2161704994153863 0.20477771103875 0
    vertex 0.2209824236033637 0.2181452215274043 0
    vertex 0.2075042324674488 0.2147025465681795 0
  endloop
endfacet
facet normal 0 -0 1
  outer loop
    vertex 0.2031752177840483 0.202303473232248 0
    vertex 0.2075042324674488 0.2147025465681795 0
    vertex 0.19414277970131 0.2124137979431557 0
  endloop
endfacet
facet normal 0 0 1
  outer loop
    vertex 0.1812384802197153 0.1743620203442775 0
    vertex 0.1743094987563598 0.1873509324899945 0
    vertex 0.1675784258978401 0.1791727338045288 0
  endloop
endfacet
facet normal 0 0 1
  outer loop
    vertex 0.1812384802197153 0.1743620203442775 0
    vertex 0.1809690046548401 0.1632718462116079 0
    vertex 0.1919345452370633 0.1631793912761497 0
  endloop
endfacet
facet normal 0 0 1
  outer loop
    vertex 0.2224958449374024 0.1819099136828815 0
    vertex 0.2092542885993769 0.17659126500191 0
    vertex 0.2217650223378954 0.16916598800259 0
  endloop
endfacet
facet normal 0 0 1
  outer loop
    vertex 0.2217650223378954 0.16916598800259 0
    vertex 0.2113477206708262 0.1631300634878248 0
    vertex 0.2230032518865578 0.1556057390798813 0
  endloop
endfacet
facet normal 0 0 1
  outer loop
    vertex 0.2230032518865578 0.1556057390798813 0
    vertex 0.2113477206708262 0.1631300634878248 0
    vertex 0.210172800652632 0.1510457956158839 0
  endloop
endfacet
facet normal 0 0 1
  outer loop
    vertex 0.2209824236033637 0.2181452215274043 0
    vertex 0.2282641411941752 0.2061393647166208 0
    vertex 0.2347796928484112 0.2155562971222252 0
  endloop
endfacet
facet normal 0 0 1
  outer loop
    vertex 0.1992909141473303 0.2275641871909601 0
    vertex 0.1838646810677794 0.2200746977600349 0
    vertex 0.19414277970131 0.2124137979431557 0
  endloop
endfacet
facet normal 0 0 1
  outer loop
    vertex 0.1946035277552009 0.1766652183631751 0
    vertex 0.2018031516486438 0.1679208054325327 0
    vertex 0.2092542885993769 0.17659126500191 0
  endloop
endfacet
facet normal 0 0 1
  outer loop
    vertex 0.2161704994153863 0.20477771103875 0
    vertex 0.2282641411941752 0.2061393647166208 0
    vertex 0.2209824236033637 0.2181452215274043 0
  endloop
endfacet
facet normal 0 0 1
  outer loop
    vertex 0.1675784258978401 0.1791727338045288 0
    vertex 0.1718586321416803 0.169450810324776 0
    vertex 0.1812384802197153 0.1743620203442775 0
  endloop
endfacet
facet normal 0 -0 1
  outer loop
    vertex 0.2075042324674488 0.2147025465681795 0
    vertex 0.2124191595522396 0.2248876591636091 0
    vertex 0.1992909141473303 0.2275641871909601 0
  endloop
endfacet
facet normal 0 0 1
  outer loop
    vertex 0.1860982567118817 0.1872722472927645 0
    vertex 0.1743094987563598 0.1873509324899945 0
    vertex 0.1812384802197153 0.1743620203442775 0
  endloop
endfacet
facet normal 0 0 1
  outer loop
    vertex 0.1726822850987496 0.2262796006370421 0
    vertex 0.1717185928629832 0.2145644973871449 0
    vertex 0.1838646810677794 0.2200746977600349 0
  endloop
endfacet
facet normal 0 0 1
  outer loop
    vertex 0.1837563754391509 0.2330839638039909 0
    vertex 0.1726822850987496 0.2262796006370421 0
    vertex 0.1838646810677794 0.2200746977600349 0
  endloop
endfacet
facet normal 0 -0 1
  outer loop
    vertex 0.2346173151749398 0.1849635781083267 0
    vertex 0.237718453883448 0.1965328847465191 0
    vertex 0.2253204434493596 0.1947604801308851 0
  endloop
endfacet
facet normal 0 -0 1
  outer loop
    vertex 0.1675784258978401 0.1791727338045288 0
    vertex 0.1743094987563598 0.1873509324899945 0
    vertex 0.1626238836722522 0.187705878633836 0
  endloop
endfacet
facet normal 0 0 1
  outer loop
    vertex 0.19414277970131 0.2124137979431557 0
    vertex 0.1838646810677794 0.2200746977600349 0
    vertex 0.1810970980056028 0.2073990232234317 0
  endloop
endfacet
facet normal 0 0 1
  outer loop
    vertex 0.2427209702273244 0.2259791975017717 0
    vertex 0.2311331288920433 0.226011781294391 0
    vertex 0.2347796928484112 0.2155562971222252 0
  endloop
endfacet
facet normal 0 0 1
  outer loop
    vertex 0.2341276571609327 0.2365417982139063 0
    vertex 0.2311331288920433 0.226011781294391 0
    vertex 0.2427209702273244 0.2259791975017717 0
  endloop
endfacet
facet normal 0 0 1
  outer loop
    vertex 0.2347796928484112 0.2155562971222252 0
    vertex 0.2311331288920433 0.226011781294391 0
    vertex 0.2209824236033637 0.2181452215274043 0
  endloop
endfacet
facet normal 0 0 1
  outer loop
    vertex 0.1838646810677794 0.2200746977600349 0
    vertex 0.1717185928629832 0.2145644973871449 0
    vertex 0.1810970980056028 0.2073990232234317 0
  endloop
endfacet
facet normal 0 0 1
  outer loop
    vertex 0.2346173151749398 0.1849635781083267 0
    vertex 0.2224958449374024 0.1819099136828815 0
    vertex 0.231106209200298 0.1746208038125701 0
  endloop
endfacet
facet normal 0 0 1
  outer loop
    vertex 0.2092542885993769 0.17659126500191 0
    vertex 0.2113477206708262 0.1631300634878248 0
    vertex 0.2217650223378954 0.16916598800259 0
  endloop
endfacet
facet normal 0 0 1
  outer loop
    vertex 0.237718453883448 0.1965328847465191 0
    vertex 0.2282641411941752 0.2061393647166208 0
    vertex 0.2253204434493596 0.1947604801308851 0
  endloop
endfacet
facet normal 0 0 1
  outer loop
    vertex 0.231106209200298 0.1746208038125701 0
    vertex 0.2224958449374024 0.1819099136828815 0
    vertex 0.2217650223378954 0.16916598800259 0
  endloop
endfacet
facet normal 0 -0 1
  outer loop
    vertex 0.237718453883448 0.1965328847465191 0
    vertex 0.2402561390036371 0.2066326710289633 0
    vertex 0.2282641411941752 0.2061393647166208 0
  endloop
endfacet
facet normal 0 -0 1
  outer loop
    vertex 0.2253204434493596 0.1947604801308851 0
    vertex 0.2282641411941752 0.2061393647166208 0
    vertex 0.2161704994153863 0.20477771103875 0
  endloop
endfacet
facet normal 0 0 1
  outer loop
    vertex 0.1919345452370633 0.1631793912761497 0
    vertex 0.2018031516486438 0.1679208054325327 0
    vertex 0.1946035277552009 0.1766652183631751 0
  endloop
endfacet
facet normal 0 0 1
  outer loop
    vertex 0.2427209702273245 0.1740208024982284 0
    vertex 0.231106209200298 0.1746208038125701 0
    vertex 0.2341276571609328 0.1634582017860939 0
  endloop
endfacet
facet normal 0 -0 1
  outer loop
    vertex 0.1541394349247275 0.1800799455076877 0
    vertex 0.1626238836722522 0.187705878633836 0
    vertex 0.1504657026981835 0.1931916675451874 0
  endloop
endfacet
facet normal 0 0 1
  outer loop
    vertex 0.2346173151749398 0.1849635781083267 0
    vertex 0.231106209200298 0.1746208038125701 0
    vertex 0.2427209702273245 0.1740208024982284 0
  endloop
endfacet
facet normal 0 0 1
  outer loop
    vertex 0.1675784258978401 0.1791727338045288 0
    vertex 0.1626238836722522 0.187705878633836 0
    vertex 0.1541394349247275 0.1800799455076877 0
  endloop
endfacet
facet normal 0 0 1
  outer loop
    vertex 0.2341276571609328 0.1634582017860939 0
    vertex 0.231106209200298 0.1746208038125701 0
    vertex 0.2217650223378954 0.16916598800259 0
  endloop
endfacet
facet normal 0 0 1
  outer loop
    vertex 0.2124191595522396 0.2248876591636091 0
    vertex 0.2223841034141815 0.2309239095101583 0
    vertex 0.2126389993899521 0.2355627359415202 0
  endloop
endfacet
facet normal 0 0 1
  outer loop
    vertex 0.1919345452370633 0.1631793912761497 0
    vertex 0.1809690046548401 0.1632718462116079 0
    vertex 0.1832560193914511 0.1528869538940588 0
  endloop
endfacet
facet normal 0 0 1
  outer loop
    vertex 0.2230032518865576 0.2443942609201188 0
    vertex 0.2223841034141815 0.2309239095101583 0
    vertex 0.2341276571609327 0.2365417982139063 0
  endloop
endfacet
facet normal 0 0 1
  outer loop
    vertex 0.1612144354647792 0.1684456027836971 0
    vertex 0.1718586321416803 0.169450810324776 0
    vertex 0.1675784258978401 0.1791727338045288 0
  endloop
endfacet
facet normal 0 0 1
  outer loop
    vertex 0.24814586436739 0.2134898385578512 0
    vertex 0.2402561390036371 0.2066326710289633 0
    vertex 0.25 0.2 0
  endloop
endfacet
facet normal 0 0 1
  outer loop
    vertex 0.1965878793317664 0.249883438459527 0
    vertex 0.2029977613598388 0.2402669081817431 0
    vertex 0.2101728006526316 0.2489542043841162 0
  endloop
endfacet
facet normal 0 0 1
  outer loop
    vertex 0.1541394349247273 0.2199200544923119 0
    vertex 0.1642047819553284 0.2209115319293637 0
    vertex 0.1612144354647789 0.2315543972163025 0
  endloop
endfacet
facet normal 0 -0 1
  outer loop
    vertex 0.1965878793317668 0.150116561540473 0
    vertex 0.2024147591830034 0.158817397186493 0
    vertex 0.1919345452370633 0.1631793912761497 0
  endloop
endfacet
facet normal 0 0 1
  outer loop
    vertex 0.2209824236033637 0.2181452215274043 0
    vertex 0.2124191595522396 0.2248876591636091 0
    vertex 0.2075042324674488 0.2147025465681795 0
  endloop
endfacet
facet normal 0 0 1
  outer loop
    vertex 0.1832560193914511 0.1528869538940588 0
    vertex 0.1809690046548401 0.1632718462116079 0
    vertex 0.1711659838942569 0.1591515053494777 0
  endloop
endfacet
facet normal -0 0 1
  outer loop
    vertex 0.2126389993899521 0.2355627359415202 0
    vertex 0.2223841034141815 0.2309239095101583 0
    vertex 0.2230032518865576 0.2443942609201188 0
  endloop
endfacet
facet normal 0 -0 1
  outer loop
    vertex 0.1711659838942569 0.1591515053494777 0
    vertex 0.1718586321416803 0.169450810324776 0
    vertex 0.1612144354647792 0.1684456027836971 0
  endloop
endfacet
facet normal 0 0 1
  outer loop
    vertex 0.210172800652632 0.1510457956158839 0
    vertex 0.2024147591830034 0.158817397186493 0
    vertex 0.1965878793317668 0.150116561540473 0
  endloop
endfacet
facet normal 0 0 1
  outer loop
    vertex 0.2347796928484112 0.2155562971222252 0
    vertex 0.2402561390036371 0.2066326710289633 0
    vertex 0.24814586436739 0.2134898385578512 0
  endloop
endfacet
facet normal 0 0 1
  outer loop
    vertex 0.2101728006526316 0.2489542043841162 0
    vertex 0.2029977613598388 0.2402669081817431 0
    vertex 0.2126389993899521 0.2355627359415202 0
  endloop
endfacet
facet normal 0 0 1
  outer loop
    vertex 0.1795213018570231 0.1966080502392325 0
    vertex 0.1743094987563598 0.1873509324899945 0
    vertex 0.1860982567118817 0.1872722472927645 0
  endloop
endfacet
facet normal 0 -0 1
  outer loop
    vertex 0.1612691614254031 0.2122391099140172 0
    vertex 0.1642047819553284 0.2209115319293637 0
    vertex 0.1541394349247273 0.2199200544923119 0
  endloop
endfacet
facet normal 0 0 1
  outer loop
    vertex 0.1612144354647789 0.2315543972163025 0
    vertex 0.1642047819553284 0.2209115319293637 0
    vertex 0.1726822850987496 0.2262796006370421 0
  endloop
endfacet
facet normal 0 0 1
  outer loop
    vertex 0.2282641411941752 0.2061393647166208 0
    vertex 0.2402561390036371 0.2066326710289633 0
    vertex 0.2347796928484112 0.2155562971222252 0
  endloop
endfacet
facet normal 0 0 1
  outer loop
    vertex 0.1942096821118856 0.2380991411970402 0
    vertex 0.2029977613598388 0.2402669081817431 0
    vertex 0.1965878793317664 0.249883438459527 0
  endloop
endfacet
facet normal 0 0 1
  outer loop
    vertex 0.25 0.2 0
    vertex 0.2402561390036371 0.2066326710289633 0
    vertex 0.237718453883448 0.1965328847465191 0
  endloop
endfacet
facet normal 0 0 1
  outer loop
    vertex 0.2092542885993769 0.17659126500191 0
    vertex 0.2018031516486438 0.1679208054325327 0
    vertex 0.2113477206708262 0.1631300634878248 0
  endloop
endfacet
facet normal 0 0 1
  outer loop
    vertex 0.2341276571609327 0.2365417982139063 0
    vertex 0.2223841034141815 0.2309239095101583 0
    vertex 0.2311331288920433 0.226011781294391 0
  endloop
endfacet
facet normal 0 0 1
  outer loop
    vertex 0.2113477206708262 0.1631300634878248 0
    vertex 0.2024147591830034 0.158817397186493 0
    vertex 0.210172800652632 0.1510457956158839 0
  endloop
endfacet
facet normal 0 0 1
  outer loop
    vertex 0.1809690046548401 0.1632718462116079 0
    vertex 0.1718586321416803 0.169450810324776 0
    vertex 0.1711659838942569 0.1591515053494777 0
  endloop
endfacet
facet normal 0 0 1
  outer loop
    vertex 0.1812384802197153 0.1743620203442775 0
    vertex 0.1718586321416803 0.169450810324776 0
    vertex 0.1809690046548401 0.1632718462116079 0
  endloop
endfacet
facet normal -0 0 1
  outer loop
    vertex 0.1919345452370633 0.1631793912761497 0
    vertex 0.2024147591830034 0.158817397186493 0
    vertex 0.2018031516486438 0.1679208054325327 0
  endloop
endfacet
facet normal 0 0 1
  outer loop
    vertex 0.2018031516486438 0.1679208054325327 0
    vertex 0.2024147591830034 0.158817397186493 0
    vertex 0.2113477206708262 0.1631300634878248 0
  endloop
endfacet
facet normal 0 0 1
  outer loop
    vertex 0.1717185928629832 0.2145644973871449 0
    vertex 0.1642047819553284 0.2209115319293637 0
    vertex 0.1612691614254031 0.2122391099140172 0
  endloop
endfacet
facet normal 0 0 1
  outer loop
    vertex 0.1726822850987496 0.2262796006370421 0
    vertex 0.1642047819553284 0.2209115319293637 0
    vertex 0.1717185928629832 0.2145644973871449 0
  endloop
endfacet
endsolid Created by Gmsh
