solid Created by Gmsh
facet normal -0 0 1
  outer loop
    vertex -0.178887 0.0894406 0
    vertex -0.126324 0.0876089 0
    vertex -0.162249 0.116941 0
  endloop
endfacet
facet normal 0 -0 1
  outer loop
    vertex -0.126324 0.0876089 0
    vertex -0.107592 0.113599 0
    vertex -0.162249 0.116941 0
  endloop
endfacet
facet normal -0 0 1
  outer loop
    vertex -0.126324 0.0876089 0
    vertex -0.0737618 0.0857772 0
    vertex -0.107592 0.113599 0
  endloop
endfacet
facet normal -0 0 1
  outer loop
    vertex -0.162249 0.116941 0
    vertex -0.107592 0.113599 0
    vertex -0.141421 0.141421 0
  endloop
endfacet
facet normal 0 0 1
  outer loop
    vertex 0.141421 -0.141421 0
    vertex 0.118217 -0.113056 0
    vertex 0.116941 -0.162249 0
  endloop
endfacet
facet normal 0 0 1
  outer loop
    vertex 0.118217 -0.113056 0
    vertex 0.0922262 -0.131789 0
    vertex 0.116941 -0.162249 0
  endloop
endfacet
facet normal 0 0 1
  outer loop
    vertex 0.118217 -0.113056 0
    vertex 0.0950118 -0.0846911 0
    vertex 0.0922262 -0.131789 0
  endloop
endfacet
facet normal 0 0 1
  outer loop
    vertex 0.116941 -0.162249 0
    vertex 0.0922262 -0.131789 0
    vertex 0.0894406 -0.178887 0
  endloop
endfacet
facet normal 0 -0 1
  outer loop
    vertex -0.0737618 0.0857772 0
    vertex -0.0296882 0.107356 0
    vertex -0.0816012 0.132332 0
  endloop
endfacet
facet normal 0 0 1
  outer loop
    vertex -0.0296882 0.107356 0
    vertex -0.0375276 0.15391 0
    vertex -0.0816012 0.132332 0
  endloop
endfacet
facet normal 0 -0 1
  outer loop
    vertex -0.0296882 0.107356 0
    vertex 0.0143854 0.128934 0
    vertex -0.0375276 0.15391 0
  endloop
endfacet
facet normal 0 -0 1
  outer loop
    vertex -0.0816012 0.132332 0
    vertex -0.0375276 0.15391 0
    vertex -0.0894406 0.178887 0
  endloop
endfacet
facet normal 0 -0 1
  outer loop
    vertex -0.141421 -0.141421 0
    vertex -0.105591 -0.106869 0
    vertex -0.162249 -0.116941 0
  endloop
endfacet
facet normal 0 0 1
  outer loop
    vertex -0.105591 -0.106869 0
    vertex -0.124323 -0.080879 0
    vertex -0.162249 -0.116941 0
  endloop
endfacet
facet normal 0 -0 1
  outer loop
    vertex -0.105591 -0.106869 0
    vertex -0.0697598 -0.0723174 0
    vertex -0.124323 -0.080879 0
  endloop
endfacet
facet normal 0 -0 1
  outer loop
    vertex -0.162249 -0.116941 0
    vertex -0.124323 -0.080879 0
    vertex -0.178887 -0.0894406 0
  endloop
endfacet
facet normal 0 0 1
  outer loop
    vertex 0.178887 0.0894406 0
    vertex 0.166321 0.0447203 0
    vertex 0.232922 0.0447203 0
  endloop
endfacet
facet normal -0 0 1
  outer loop
    vertex 0.166321 0.0447203 0
    vertex 0.220357 -3.1572e-16 0
    vertex 0.232922 0.0447203 0
  endloop
endfacet
facet normal 0 0 1
  outer loop
    vertex 0.166321 0.0447203 0
    vertex 0.153756 -5.75928e-16 0
    vertex 0.220357 -3.1572e-16 0
  endloop
endfacet
facet normal 0 0 1
  outer loop
    vertex 0.232922 0.0447203 0
    vertex 0.220357 -3.1572e-16 0
    vertex 0.286958 -5.20417e-17 0
  endloop
endfacet
facet normal 0 0 1
  outer loop
    vertex 0.286958 -5.20417e-17 0
    vertex 0.220357 -3.1572e-16 0
    vertex 0.232922 -0.0447203 0
  endloop
endfacet
facet normal 0 0 1
  outer loop
    vertex 0.220357 -3.1572e-16 0
    vertex 0.166321 -0.0447203 0
    vertex 0.232922 -0.0447203 0
  endloop
endfacet
facet normal 0 0 1
  outer loop
    vertex 0.220357 -3.1572e-16 0
    vertex 0.153756 -5.75928e-16 0
    vertex 0.166321 -0.0447203 0
  endloop
endfacet
facet normal 0 0 1
  outer loop
    vertex 0.232922 -0.0447203 0
    vertex 0.166321 -0.0447203 0
    vertex 0.178887 -0.0894406 0
  endloop
endfacet
facet normal 0 0 1
  outer loop
    vertex 0.0894406 -0.178887 0
    vertex 0.044702 -0.245618 0
    vertex 0.12634 -0.284374 0
  endloop
endfacet
facet normal 0 0 1
  outer loop
    vertex 0.044702 -0.245618 0
    vertex 0.07234 -0.35356 0
    vertex 0.12634 -0.284374 0
  endloop
endfacet
facet normal 0 0 1
  outer loop
    vertex 0.044702 -0.245618 0
    vertex -3.64977e-05 -0.312349 0
    vertex 0.07234 -0.35356 0
  endloop
endfacet
facet normal 0 0 1
  outer loop
    vertex 0.12634 -0.284374 0
    vertex 0.07234 -0.35356 0
    vertex 0.144716 -0.394771 0
  endloop
endfacet
facet normal 0 0 1
  outer loop
    vertex -0.144716 -0.394771 0
    vertex -0.0723765 -0.35356 0
    vertex -0.12634 -0.284374 0
  endloop
endfacet
facet normal 0 -0 1
  outer loop
    vertex -0.0723765 -0.35356 0
    vertex -0.0447385 -0.245618 0
    vertex -0.12634 -0.284374 0
  endloop
endfacet
facet normal 0 0 1
  outer loop
    vertex -0.0723765 -0.35356 0
    vertex -3.64977e-05 -0.312349 0
    vertex -0.0447385 -0.245618 0
  endloop
endfacet
facet normal 0 0 1
  outer loop
    vertex -0.12634 -0.284374 0
    vertex -0.0447385 -0.245618 0
    vertex -0.0894406 -0.178887 0
  endloop
endfacet
facet normal 0 0 1
  outer loop
    vertex -0.394771 0.144716 0
    vertex -0.367585 0.0813464 0
    vertex -0.284374 0.12634 0
  endloop
endfacet
facet normal -0 0 1
  outer loop
    vertex -0.367585 0.0813464 0
    vertex -0.259642 0.0537084 0
    vertex -0.284374 0.12634 0
  endloop
endfacet
facet normal 0 0 1
  outer loop
    vertex -0.367585 0.0813464 0
    vertex -0.340398 0.0179762 0
    vertex -0.259642 0.0537084 0
  endloop
endfacet
facet normal 0 0 1
  outer loop
    vertex -0.284374 0.12634 0
    vertex -0.259642 0.0537084 0
    vertex -0.178887 0.0894406 0
  endloop
endfacet
facet normal 0 0 1
  outer loop
    vertex -0.0894406 0.178887 0
    vertex -0.0446209 0.191964 0
    vertex -0.0447203 0.241872 0
  endloop
endfacet
facet normal 0 -0 1
  outer loop
    vertex -0.0446209 0.191964 0
    vertex 9.94167e-05 0.25495 0
    vertex -0.0447203 0.241872 0
  endloop
endfacet
facet normal 0 0 1
  outer loop
    vertex -0.0446209 0.191964 0
    vertex 0.000198833 0.205042 0
    vertex 9.94167e-05 0.25495 0
  endloop
endfacet
facet normal 0 0 1
  outer loop
    vertex -0.0447203 0.241872 0
    vertex 9.94167e-05 0.25495 0
    vertex 3.46945e-18 0.304857 0
  endloop
endfacet
facet normal 0 0 1
  outer loop
    vertex 0.141461 0.366963 0
    vertex 0.0707303 0.33591 0
    vertex 0.122932 0.270796 0
  endloop
endfacet
facet normal 0 0 1
  outer loop
    vertex 0.0707303 0.33591 0
    vertex 0.0447203 0.241872 0
    vertex 0.122932 0.270796 0
  endloop
endfacet
facet normal 0 0 1
  outer loop
    vertex 0.0707303 0.33591 0
    vertex 3.46945e-18 0.304857 0
    vertex 0.0447203 0.241872 0
  endloop
endfacet
facet normal 0 0 1
  outer loop
    vertex 0.122932 0.270796 0
    vertex 0.0447203 0.241872 0
    vertex 0.0894406 0.178887 0
  endloop
endfacet
facet normal 0 -0 1
  outer loop
    vertex -0.0894406 0.178887 0
    vertex -0.0447203 0.241872 0
    vertex -0.122932 0.270796 0
  endloop
endfacet
facet normal 0 0 1
  outer loop
    vertex -0.0447203 0.241872 0
    vertex -0.0707303 0.33591 0
    vertex -0.122932 0.270796 0
  endloop
endfacet
facet normal 0 -0 1
  outer loop
    vertex -0.0447203 0.241872 0
    vertex 3.46945e-18 0.304857 0
    vertex -0.0707303 0.33591 0
  endloop
endfacet
facet normal 0 -0 1
  outer loop
    vertex -0.122932 0.270796 0
    vertex -0.0707303 0.33591 0
    vertex -0.141461 0.366963 0
  endloop
endfacet
facet normal -0 0 1
  outer loop
    vertex 0.178887 0.0894406 0
    vertex 0.232922 0.0447203 0
    vertex 0.270796 0.122932 0
  endloop
endfacet
facet normal 0 0 1
  outer loop
    vertex 0.232922 0.0447203 0
    vertex 0.32696 0.0707303 0
    vertex 0.270796 0.122932 0
  endloop
endfacet
facet normal -0 0 1
  outer loop
    vertex 0.232922 0.0447203 0
    vertex 0.286958 -5.20417e-17 0
    vertex 0.32696 0.0707303 0
  endloop
endfacet
facet normal -0 0 1
  outer loop
    vertex 0.270796 0.122932 0
    vertex 0.32696 0.0707303 0
    vertex 0.366963 0.141461 0
  endloop
endfacet
facet normal 0 0 1
  outer loop
    vertex 0.366963 -0.141461 0
    vertex 0.32696 -0.0707303 0
    vertex 0.270796 -0.122932 0
  endloop
endfacet
facet normal 0 0 1
  outer loop
    vertex 0.32696 -0.0707303 0
    vertex 0.232922 -0.0447203 0
    vertex 0.270796 -0.122932 0
  endloop
endfacet
facet normal 0 0 1
  outer loop
    vertex 0.32696 -0.0707303 0
    vertex 0.286958 -5.20417e-17 0
    vertex 0.232922 -0.0447203 0
  endloop
endfacet
facet normal 0 0 1
  outer loop
    vertex 0.270796 -0.122932 0
    vertex 0.232922 -0.0447203 0
    vertex 0.178887 -0.0894406 0
  endloop
endfacet
facet normal -0 0 1
  outer loop
    vertex -0.141421 0.141421 0
    vertex -0.107592 0.113599 0
    vertex -0.116941 0.162249 0
  endloop
endfacet
facet normal 0 -0 1
  outer loop
    vertex -0.107592 0.113599 0
    vertex -0.0816012 0.132332 0
    vertex -0.116941 0.162249 0
  endloop
endfacet
facet normal -0 0 1
  outer loop
    vertex -0.107592 0.113599 0
    vertex -0.0737618 0.0857772 0
    vertex -0.0816012 0.132332 0
  endloop
endfacet
facet normal -0 0 1
  outer loop
    vertex -0.116941 0.162249 0
    vertex -0.0816012 0.132332 0
    vertex -0.0894406 0.178887 0
  endloop
endfacet
facet normal 0 0 1
  outer loop
    vertex 0.178887 -0.0894406 0
    vertex 0.136949 -0.0870658 0
    vertex 0.162249 -0.116941 0
  endloop
endfacet
facet normal 0 0 1
  outer loop
    vertex 0.136949 -0.0870658 0
    vertex 0.118217 -0.113056 0
    vertex 0.162249 -0.116941 0
  endloop
endfacet
facet normal 0 0 1
  outer loop
    vertex 0.136949 -0.0870658 0
    vertex 0.0950118 -0.0846911 0
    vertex 0.118217 -0.113056 0
  endloop
endfacet
facet normal 0 0 1
  outer loop
    vertex 0.162249 -0.116941 0
    vertex 0.118217 -0.113056 0
    vertex 0.141421 -0.141421 0
  endloop
endfacet
facet normal 0 0 1
  outer loop
    vertex -0.178887 0.0894406 0
    vertex -0.155129 0.0473135 0
    vertex -0.126324 0.0876089 0
  endloop
endfacet
facet normal -0 0 1
  outer loop
    vertex -0.155129 0.0473135 0
    vertex -0.102567 0.0454818 0
    vertex -0.126324 0.0876089 0
  endloop
endfacet
facet normal 0 0 1
  outer loop
    vertex -0.155129 0.0473135 0
    vertex -0.131371 0.00518635 0
    vertex -0.102567 0.0454818 0
  endloop
endfacet
facet normal 0 0 1
  outer loop
    vertex -0.126324 0.0876089 0
    vertex -0.102567 0.0454818 0
    vertex -0.0737618 0.0857772 0
  endloop
endfacet
facet normal 0 0 1
  outer loop
    vertex -0.0697598 -0.0723174 0
    vertex -0.100566 -0.0335655 0
    vertex -0.124323 -0.080879 0
  endloop
endfacet
facet normal 0 0 1
  outer loop
    vertex -0.100566 -0.0335655 0
    vertex -0.155129 -0.0421271 0
    vertex -0.124323 -0.080879 0
  endloop
endfacet
facet normal 0 0 1
  outer loop
    vertex -0.100566 -0.0335655 0
    vertex -0.131371 0.00518635 0
    vertex -0.155129 -0.0421271 0
  endloop
endfacet
facet normal 0 0 1
  outer loop
    vertex -0.124323 -0.080879 0
    vertex -0.155129 -0.0421271 0
    vertex -0.178887 -0.0894406 0
  endloop
endfacet
facet normal 0 0 1
  outer loop
    vertex -0.115462 0.755339 0
    vertex -6.93889e-17 0.755339 0
    vertex -0.0760598 0.844763 0
  endloop
endfacet
facet normal 0 -0 1
  outer loop
    vertex -6.93889e-17 0.755339 0
    vertex 0.0760598 0.844763 0
    vertex -0.0760598 0.844763 0
  endloop
endfacet
facet normal 0 0 1
  outer loop
    vertex -6.93889e-17 0.755339 0
    vertex 0.115462 0.755339 0
    vertex 0.0760598 0.844763 0
  endloop
endfacet
facet normal 0 0 1
  outer loop
    vertex -0.0760598 0.844763 0
    vertex 0.0760598 0.844763 0
    vertex 9.99201e-17 0.9 0
  endloop
endfacet
facet normal 0 0 1
  outer loop
    vertex 0.755339 0.115462 0
    vertex 0.755339 1.04083e-16 0
    vertex 0.844763 0.0760598 0
  endloop
endfacet
facet normal -0 0 1
  outer loop
    vertex 0.755339 1.04083e-16 0
    vertex 0.844763 -0.0760598 0
    vertex 0.844763 0.0760598 0
  endloop
endfacet
facet normal 0 0 1
  outer loop
    vertex 0.755339 1.04083e-16 0
    vertex 0.755339 -0.115462 0
    vertex 0.844763 -0.0760598 0
  endloop
endfacet
facet normal 0 0 1
  outer loop
    vertex 0.844763 0.0760598 0
    vertex 0.844763 -0.0760598 0
    vertex 0.9 0 0
  endloop
endfacet
facet normal 0 0 1
  outer loop
    vertex -0.0894406 -0.178887 0
    vertex -0.0410185 -0.155598 0
    vertex -0.0796002 -0.125602 0
  endloop
endfacet
facet normal 0 -0 1
  outer loop
    vertex -0.0410185 -0.155598 0
    vertex -0.0311781 -0.102313 0
    vertex -0.0796002 -0.125602 0
  endloop
endfacet
facet normal 0 0 1
  outer loop
    vertex -0.0410185 -0.155598 0
    vertex 0.00740349 -0.132309 0
    vertex -0.0311781 -0.102313 0
  endloop
endfacet
facet normal 0 0 1
  outer loop
    vertex -0.0796002 -0.125602 0
    vertex -0.0311781 -0.102313 0
    vertex -0.0697598 -0.0723174 0
  endloop
endfacet
facet normal 0 0 1
  outer loop
    vertex 3.46945e-18 0.304857 0
    vertex 9.94167e-05 0.25495 0
    vertex 0.0447203 0.241872 0
  endloop
endfacet
facet normal 0 0 1
  outer loop
    vertex 9.94167e-05 0.25495 0
    vertex 0.0448197 0.191964 0
    vertex 0.0447203 0.241872 0
  endloop
endfacet
facet normal 0 0 1
  outer loop
    vertex 9.94167e-05 0.25495 0
    vertex 0.000198833 0.205042 0
    vertex 0.0448197 0.191964 0
  endloop
endfacet
facet normal 0 0 1
  outer loop
    vertex 0.0447203 0.241872 0
    vertex 0.0448197 0.191964 0
    vertex 0.0894406 0.178887 0
  endloop
endfacet
facet normal 0 0 1
  outer loop
    vertex -0.224802 -6.93889e-18 0
    vertex -0.2826 0.00898812 0
    vertex -0.309787 -0.0723582 0
  endloop
endfacet
facet normal 0 0 1
  outer loop
    vertex -0.2826 0.00898812 0
    vertex -0.367585 -0.0633701 0
    vertex -0.309787 -0.0723582 0
  endloop
endfacet
facet normal 0 0 1
  outer loop
    vertex -0.2826 0.00898812 0
    vertex -0.340398 0.0179762 0
    vertex -0.367585 -0.0633701 0
  endloop
endfacet
facet normal 0 0 1
  outer loop
    vertex -0.309787 -0.0723582 0
    vertex -0.367585 -0.0633701 0
    vertex -0.394771 -0.144716 0
  endloop
endfacet
facet normal 0 0 1
  outer loop
    vertex 0.755339 0.115462 0
    vertex 0.68802 0.0577311 0
    vertex 0.755339 1.04083e-16 0
  endloop
endfacet
facet normal 0 0 1
  outer loop
    vertex 0.68802 0.0577311 0
    vertex 0.68802 -0.0577311 0
    vertex 0.755339 1.04083e-16 0
  endloop
endfacet
facet normal 0 0 1
  outer loop
    vertex 0.68802 0.0577311 0
    vertex 0.620701 2.08167e-17 0
    vertex 0.68802 -0.0577311 0
  endloop
endfacet
facet normal 0 0 1
  outer loop
    vertex 0.755339 1.04083e-16 0
    vertex 0.68802 -0.0577311 0
    vertex 0.755339 -0.115462 0
  endloop
endfacet
facet normal -0 0 1
  outer loop
    vertex -0.115462 0.755339 0
    vertex -0.0577311 0.687975 0
    vertex -6.93889e-17 0.755339 0
  endloop
endfacet
facet normal 0 0 1
  outer loop
    vertex -0.0577311 0.687975 0
    vertex 0.0577311 0.687975 0
    vertex -6.93889e-17 0.755339 0
  endloop
endfacet
facet normal -0 0 1
  outer loop
    vertex -0.0577311 0.687975 0
    vertex 2.08167e-17 0.620611 0
    vertex 0.0577311 0.687975 0
  endloop
endfacet
facet normal -0 0 1
  outer loop
    vertex -6.93889e-17 0.755339 0
    vertex 0.0577311 0.687975 0
    vertex 0.115462 0.755339 0
  endloop
endfacet
facet normal 0 0 1
  outer loop
    vertex 0.0950118 -0.0846911 0
    vertex 0.0512077 -0.1085 0
    vertex 0.0922262 -0.131789 0
  endloop
endfacet
facet normal 0 0 1
  outer loop
    vertex 0.0512077 -0.1085 0
    vertex 0.048422 -0.155598 0
    vertex 0.0922262 -0.131789 0
  endloop
endfacet
facet normal 0 0 1
  outer loop
    vertex 0.0512077 -0.1085 0
    vertex 0.00740349 -0.132309 0
    vertex 0.048422 -0.155598 0
  endloop
endfacet
facet normal 0 0 1
  outer loop
    vertex 0.0922262 -0.131789 0
    vertex 0.048422 -0.155598 0
    vertex 0.0894406 -0.178887 0
  endloop
endfacet
facet normal 0 -0 1
  outer loop
    vertex -0.0894406 -0.178887 0
    vertex -0.0796002 -0.125602 0
    vertex -0.116941 -0.162249 0
  endloop
endfacet
facet normal 0 0 1
  outer loop
    vertex -0.0796002 -0.125602 0
    vertex -0.105591 -0.106869 0
    vertex -0.116941 -0.162249 0
  endloop
endfacet
facet normal 0 -0 1
  outer loop
    vertex -0.0796002 -0.125602 0
    vertex -0.0697598 -0.0723174 0
    vertex -0.105591 -0.106869 0
  endloop
endfacet
facet normal 0 -0 1
  outer loop
    vertex -0.116941 -0.162249 0
    vertex -0.105591 -0.106869 0
    vertex -0.141421 -0.141421 0
  endloop
endfacet
facet normal 0 0 1
  outer loop
    vertex -0.131371 0.00518635 0
    vertex -0.0967517 0.0114223 0
    vertex -0.102567 0.0454818 0
  endloop
endfacet
facet normal 0 -0 1
  outer loop
    vertex -0.0967517 0.0114223 0
    vertex -0.0679469 0.0517177 0
    vertex -0.102567 0.0454818 0
  endloop
endfacet
facet normal 0 0 1
  outer loop
    vertex -0.0967517 0.0114223 0
    vertex -0.062132 0.0176583 0
    vertex -0.0679469 0.0517177 0
  endloop
endfacet
facet normal 0 0 1
  outer loop
    vertex -0.102567 0.0454818 0
    vertex -0.0679469 0.0517177 0
    vertex -0.0737618 0.0857772 0
  endloop
endfacet
facet normal 0 0 1
  outer loop
    vertex -0.00107194 -0.00335941 0
    vertex -0.031602 0.00714943 0
    vertex -0.0354158 -0.0378384 0
  endloop
endfacet
facet normal 0 0 1
  outer loop
    vertex -0.031602 0.00714943 0
    vertex -0.0659459 -0.0273295 0
    vertex -0.0354158 -0.0378384 0
  endloop
endfacet
facet normal 0 0 1
  outer loop
    vertex -0.031602 0.00714943 0
    vertex -0.062132 0.0176583 0
    vertex -0.0659459 -0.0273295 0
  endloop
endfacet
facet normal 0 0 1
  outer loop
    vertex -0.0354158 -0.0378384 0
    vertex -0.0659459 -0.0273295 0
    vertex -0.0697598 -0.0723174 0
  endloop
endfacet
facet normal -0 0 1
  outer loop
    vertex 0.100013 0.0537075 0
    vertex 0.126885 0.0268538 0
    vertex 0.13945 0.0715741 0
  endloop
endfacet
facet normal 0 0 1
  outer loop
    vertex 0.126885 0.0268538 0
    vertex 0.166321 0.0447203 0
    vertex 0.13945 0.0715741 0
  endloop
endfacet
facet normal -0 0 1
  outer loop
    vertex 0.126885 0.0268538 0
    vertex 0.153756 -5.75928e-16 0
    vertex 0.166321 0.0447203 0
  endloop
endfacet
facet normal -0 0 1
  outer loop
    vertex 0.13945 0.0715741 0
    vertex 0.166321 0.0447203 0
    vertex 0.178887 0.0894406 0
  endloop
endfacet
facet normal 0 0 1
  outer loop
    vertex 0.178887 -0.0894406 0
    vertex 0.166321 -0.0447203 0
    vertex 0.136949 -0.0870658 0
  endloop
endfacet
facet normal 0 0 1
  outer loop
    vertex 0.166321 -0.0447203 0
    vertex 0.124384 -0.0423456 0
    vertex 0.136949 -0.0870658 0
  endloop
endfacet
facet normal 0 0 1
  outer loop
    vertex 0.166321 -0.0447203 0
    vertex 0.153756 -5.75928e-16 0
    vertex 0.124384 -0.0423456 0
  endloop
endfacet
facet normal 0 0 1
  outer loop
    vertex 0.136949 -0.0870658 0
    vertex 0.124384 -0.0423456 0
    vertex 0.0950118 -0.0846911 0
  endloop
endfacet
facet normal 0 0 1
  outer loop
    vertex 0.141421 0.141421 0
    vertex 0.114826 0.127608 0
    vertex 0.162249 0.116941 0
  endloop
endfacet
facet normal 0 0 1
  outer loop
    vertex 0.114826 0.127608 0
    vertex 0.133559 0.101617 0
    vertex 0.162249 0.116941 0
  endloop
endfacet
facet normal 0 0 1
  outer loop
    vertex 0.114826 0.127608 0
    vertex 0.0882313 0.113794 0
    vertex 0.133559 0.101617 0
  endloop
endfacet
facet normal 0 0 1
  outer loop
    vertex 0.162249 0.116941 0
    vertex 0.133559 0.101617 0
    vertex 0.178887 0.0894406 0
  endloop
endfacet
facet normal 0 0 1
  outer loop
    vertex 0.0143854 0.128934 0
    vertex 0.00729212 0.166988 0
    vertex -0.0375276 0.15391 0
  endloop
endfacet
facet normal 0 0 1
  outer loop
    vertex 0.00729212 0.166988 0
    vertex -0.0446209 0.191964 0
    vertex -0.0375276 0.15391 0
  endloop
endfacet
facet normal 0 0 1
  outer loop
    vertex 0.00729212 0.166988 0
    vertex 0.000198833 0.205042 0
    vertex -0.0446209 0.191964 0
  endloop
endfacet
facet normal 0 0 1
  outer loop
    vertex -0.0375276 0.15391 0
    vertex -0.0446209 0.191964 0
    vertex -0.0894406 0.178887 0
  endloop
endfacet
facet normal 0 -0 1
  outer loop
    vertex -0.0697598 -0.0723174 0
    vertex -0.0659459 -0.0273295 0
    vertex -0.100566 -0.0335655 0
  endloop
endfacet
facet normal 0 0 1
  outer loop
    vertex -0.0659459 -0.0273295 0
    vertex -0.0967517 0.0114223 0
    vertex -0.100566 -0.0335655 0
  endloop
endfacet
facet normal 0 -0 1
  outer loop
    vertex -0.0659459 -0.0273295 0
    vertex -0.062132 0.0176583 0
    vertex -0.0967517 0.0114223 0
  endloop
endfacet
facet normal 0 -0 1
  outer loop
    vertex -0.100566 -0.0335655 0
    vertex -0.0967517 0.0114223 0
    vertex -0.131371 0.00518635 0
  endloop
endfacet
facet normal 0 0 1
  outer loop
    vertex -0.0697598 -0.0723174 0
    vertex -0.0252955 -0.0661768 0
    vertex -0.0354158 -0.0378384 0
  endloop
endfacet
facet normal 0 -0 1
  outer loop
    vertex -0.0252955 -0.0661768 0
    vertex 0.00904845 -0.0316978 0
    vertex -0.0354158 -0.0378384 0
  endloop
endfacet
facet normal 0 0 1
  outer loop
    vertex -0.0252955 -0.0661768 0
    vertex 0.0191688 -0.0600362 0
    vertex 0.00904845 -0.0316978 0
  endloop
endfacet
facet normal 0 0 1
  outer loop
    vertex -0.0354158 -0.0378384 0
    vertex 0.00904845 -0.0316978 0
    vertex -0.00107194 -0.00335941 0
  endloop
endfacet
facet normal 0 0 1
  outer loop
    vertex 0.178887 0.0894406 0
    vertex 0.133559 0.101617 0
    vertex 0.13945 0.0715741 0
  endloop
endfacet
facet normal 0 0 1
  outer loop
    vertex 0.133559 0.101617 0
    vertex 0.0941221 0.0837508 0
    vertex 0.13945 0.0715741 0
  endloop
endfacet
facet normal 0 0 1
  outer loop
    vertex 0.133559 0.101617 0
    vertex 0.0882313 0.113794 0
    vertex 0.0941221 0.0837508 0
  endloop
endfacet
facet normal 0 0 1
  outer loop
    vertex 0.13945 0.0715741 0
    vertex 0.0941221 0.0837508 0
    vertex 0.100013 0.0537075 0
  endloop
endfacet
facet normal 0 0 1
  outer loop
    vertex 0.100013 0.0537075 0
    vertex 0.082177 0.0239919 0
    vertex 0.126885 0.0268538 0
  endloop
endfacet
facet normal -0 0 1
  outer loop
    vertex 0.082177 0.0239919 0
    vertex 0.109049 -0.00286192 0
    vertex 0.126885 0.0268538 0
  endloop
endfacet
facet normal 0 0 1
  outer loop
    vertex 0.082177 0.0239919 0
    vertex 0.0643411 -0.00572383 0
    vertex 0.109049 -0.00286192 0
  endloop
endfacet
facet normal 0 0 1
  outer loop
    vertex 0.126885 0.0268538 0
    vertex 0.109049 -0.00286192 0
    vertex 0.153756 -5.75928e-16 0
  endloop
endfacet
facet normal 0 0 1
  outer loop
    vertex 0.153756 -5.75928e-16 0
    vertex 0.109049 -0.00286192 0
    vertex 0.124384 -0.0423456 0
  endloop
endfacet
facet normal 0 0 1
  outer loop
    vertex 0.109049 -0.00286192 0
    vertex 0.0796765 -0.0452075 0
    vertex 0.124384 -0.0423456 0
  endloop
endfacet
facet normal 0 0 1
  outer loop
    vertex 0.109049 -0.00286192 0
    vertex 0.0643411 -0.00572383 0
    vertex 0.0796765 -0.0452075 0
  endloop
endfacet
facet normal 0 0 1
  outer loop
    vertex 0.124384 -0.0423456 0
    vertex 0.0796765 -0.0452075 0
    vertex 0.0950118 -0.0846911 0
  endloop
endfacet
facet normal 0 -0 1
  outer loop
    vertex -0.0832446 -0.83275 0
    vertex -0.0416223 -0.763288 0
    vertex -0.123139 -0.728415 0
  endloop
endfacet
facet normal 0 0 1
  outer loop
    vertex -0.0416223 -0.763288 0
    vertex -0.0716429 -0.65608 0
    vertex -0.123139 -0.728415 0
  endloop
endfacet
facet normal 0 -0 1
  outer loop
    vertex -0.0416223 -0.763288 0
    vertex -7.70217e-16 -0.693825 0
    vertex -0.0716429 -0.65608 0
  endloop
endfacet
facet normal 0 -0 1
  outer loop
    vertex -0.123139 -0.728415 0
    vertex -0.0716429 -0.65608 0
    vertex -0.143286 -0.618335 0
  endloop
endfacet
facet normal -0 0 1
  outer loop
    vertex -0.83275 0.0832446 0
    vertex -0.763288 0.0416223 0
    vertex -0.728415 0.123139 0
  endloop
endfacet
facet normal 0 0 1
  outer loop
    vertex -0.763288 0.0416223 0
    vertex -0.65608 0.0716429 0
    vertex -0.728415 0.123139 0
  endloop
endfacet
facet normal -0 0 1
  outer loop
    vertex -0.763288 0.0416223 0
    vertex -0.693825 7.14706e-16 0
    vertex -0.65608 0.0716429 0
  endloop
endfacet
facet normal -0 0 1
  outer loop
    vertex -0.728415 0.123139 0
    vertex -0.65608 0.0716429 0
    vertex -0.618335 0.143286 0
  endloop
endfacet
facet normal 0 0 1
  outer loop
    vertex 0.143286 -0.618335 0
    vertex 0.0716429 -0.65608 0
    vertex 0.123139 -0.728415 0
  endloop
endfacet
facet normal 0 0 1
  outer loop
    vertex 0.0716429 -0.65608 0
    vertex 0.0416223 -0.763288 0
    vertex 0.123139 -0.728415 0
  endloop
endfacet
facet normal 0 0 1
  outer loop
    vertex 0.0716429 -0.65608 0
    vertex -7.70217e-16 -0.693825 0
    vertex 0.0416223 -0.763288 0
  endloop
endfacet
facet normal 0 0 1
  outer loop
    vertex 0.123139 -0.728415 0
    vertex 0.0416223 -0.763288 0
    vertex 0.0832446 -0.83275 0
  endloop
endfacet
facet normal 0 0 1
  outer loop
    vertex -0.618335 -0.143286 0
    vertex -0.65608 -0.0716429 0
    vertex -0.728415 -0.123139 0
  endloop
endfacet
facet normal 0 0 1
  outer loop
    vertex -0.65608 -0.0716429 0
    vertex -0.763288 -0.0416223 0
    vertex -0.728415 -0.123139 0
  endloop
endfacet
facet normal 0 0 1
  outer loop
    vertex -0.65608 -0.0716429 0
    vertex -0.693825 7.14706e-16 0
    vertex -0.763288 -0.0416223 0
  endloop
endfacet
facet normal 0 0 1
  outer loop
    vertex -0.728415 -0.123139 0
    vertex -0.763288 -0.0416223 0
    vertex -0.83275 -0.0832446 0
  endloop
endfacet
facet normal -0 0 1
  outer loop
    vertex -0.0894406 -0.178887 0
    vertex -0.0447203 -0.198962 0
    vertex -0.0410185 -0.155598 0
  endloop
endfacet
facet normal 0 0 1
  outer loop
    vertex -0.0447203 -0.198962 0
    vertex 0.00370174 -0.175673 0
    vertex -0.0410185 -0.155598 0
  endloop
endfacet
facet normal -0 0 1
  outer loop
    vertex -0.0447203 -0.198962 0
    vertex 0 -0.219037 0
    vertex 0.00370174 -0.175673 0
  endloop
endfacet
facet normal -0 0 1
  outer loop
    vertex -0.0410185 -0.155598 0
    vertex 0.00370174 -0.175673 0
    vertex 0.00740349 -0.132309 0
  endloop
endfacet
facet normal -0 0 1
  outer loop
    vertex 0.366963 0.141461 0
    vertex 0.417339 0.0707303 0
    vertex 0.464599 0.149411 0
  endloop
endfacet
facet normal 0 0 1
  outer loop
    vertex 0.417339 0.0707303 0
    vertex 0.515135 0.0740772 0
    vertex 0.464599 0.149411 0
  endloop
endfacet
facet normal -0 0 1
  outer loop
    vertex 0.417339 0.0707303 0
    vertex 0.467715 -3.46945e-18 0
    vertex 0.515135 0.0740772 0
  endloop
endfacet
facet normal 0 0 1
  outer loop
    vertex 0.464599 0.149411 0
    vertex 0.515135 0.0740772 0
    vertex 0.562555 0.148154 0
  endloop
endfacet
facet normal 0 0 1
  outer loop
    vertex 0.562555 -0.148154 0
    vertex 0.515135 -0.0740772 0
    vertex 0.464599 -0.149411 0
  endloop
endfacet
facet normal 0 0 1
  outer loop
    vertex 0.515135 -0.0740772 0
    vertex 0.417339 -0.0707303 0
    vertex 0.464599 -0.149411 0
  endloop
endfacet
facet normal 0 0 1
  outer loop
    vertex 0.515135 -0.0740772 0
    vertex 0.467715 -3.46945e-18 0
    vertex 0.417339 -0.0707303 0
  endloop
endfacet
facet normal 0 0 1
  outer loop
    vertex 0.464599 -0.149411 0
    vertex 0.417339 -0.0707303 0
    vertex 0.366963 -0.141461 0
  endloop
endfacet
facet normal 0 -0 1
  outer loop
    vertex -0.141461 0.366963 0
    vertex -0.0707303 0.417114 0
    vertex -0.149411 0.464599 0
  endloop
endfacet
facet normal 0 0 1
  outer loop
    vertex -0.0707303 0.417114 0
    vertex -0.0740772 0.514911 0
    vertex -0.149411 0.464599 0
  endloop
endfacet
facet normal 0 -0 1
  outer loop
    vertex -0.0707303 0.417114 0
    vertex 1.11022e-16 0.467266 0
    vertex -0.0740772 0.514911 0
  endloop
endfacet
facet normal 0 0 1
  outer loop
    vertex -0.149411 0.464599 0
    vertex -0.0740772 0.514911 0
    vertex -0.148154 0.562555 0
  endloop
endfacet
facet normal 0 0 1
  outer loop
    vertex 0.148154 0.562555 0
    vertex 0.0740772 0.514911 0
    vertex 0.149411 0.464599 0
  endloop
endfacet
facet normal 0 0 1
  outer loop
    vertex 0.0740772 0.514911 0
    vertex 0.0707303 0.417114 0
    vertex 0.149411 0.464599 0
  endloop
endfacet
facet normal 0 0 1
  outer loop
    vertex 0.0740772 0.514911 0
    vertex 1.11022e-16 0.467266 0
    vertex 0.0707303 0.417114 0
  endloop
endfacet
facet normal 0 0 1
  outer loop
    vertex 0.149411 0.464599 0
    vertex 0.0707303 0.417114 0
    vertex 0.141461 0.366963 0
  endloop
endfacet
facet normal 0 0 1
  outer loop
    vertex -0.0737618 0.0857772 0
    vertex -0.0679469 0.0517177 0
    vertex -0.0273741 0.0723588 0
  endloop
endfacet
facet normal -0 0 1
  outer loop
    vertex -0.0679469 0.0517177 0
    vertex -0.0215592 0.0382994 0
    vertex -0.0273741 0.0723588 0
  endloop
endfacet
facet normal 0 0 1
  outer loop
    vertex -0.0679469 0.0517177 0
    vertex -0.062132 0.0176583 0
    vertex -0.0215592 0.0382994 0
  endloop
endfacet
facet normal 0 0 1
  outer loop
    vertex -0.0273741 0.0723588 0
    vertex -0.0215592 0.0382994 0
    vertex 0.0190135 0.0589405 0
  endloop
endfacet
facet normal 0 0 1
  outer loop
    vertex 0.755339 -0.115462 0
    vertex 0.68802 -0.0577311 0
    vertex 0.659928 -0.137489 0
  endloop
endfacet
facet normal 0 0 1
  outer loop
    vertex 0.68802 -0.0577311 0
    vertex 0.591628 -0.0740772 0
    vertex 0.659928 -0.137489 0
  endloop
endfacet
facet normal 0 0 1
  outer loop
    vertex 0.68802 -0.0577311 0
    vertex 0.620701 2.08167e-17 0
    vertex 0.591628 -0.0740772 0
  endloop
endfacet
facet normal 0 0 1
  outer loop
    vertex 0.659928 -0.137489 0
    vertex 0.591628 -0.0740772 0
    vertex 0.562555 -0.148154 0
  endloop
endfacet
facet normal 0 0 1
  outer loop
    vertex 0.115462 0.755339 0
    vertex 0.0577311 0.687975 0
    vertex 0.137489 0.659928 0
  endloop
endfacet
facet normal 0 0 1
  outer loop
    vertex 0.0577311 0.687975 0
    vertex 0.0740772 0.591583 0
    vertex 0.137489 0.659928 0
  endloop
endfacet
facet normal 0 0 1
  outer loop
    vertex 0.0577311 0.687975 0
    vertex 2.08167e-17 0.620611 0
    vertex 0.0740772 0.591583 0
  endloop
endfacet
facet normal 0 0 1
  outer loop
    vertex 0.137489 0.659928 0
    vertex 0.0740772 0.591583 0
    vertex 0.148154 0.562555 0
  endloop
endfacet
facet normal 0 0 1
  outer loop
    vertex -0.148154 0.562555 0
    vertex -0.0740772 0.591583 0
    vertex -0.137489 0.659928 0
  endloop
endfacet
facet normal 0 -0 1
  outer loop
    vertex -0.0740772 0.591583 0
    vertex -0.0577311 0.687975 0
    vertex -0.137489 0.659928 0
  endloop
endfacet
facet normal 0 0 1
  outer loop
    vertex -0.0740772 0.591583 0
    vertex 2.08167e-17 0.620611 0
    vertex -0.0577311 0.687975 0
  endloop
endfacet
facet normal 0 0 1
  outer loop
    vertex -0.137489 0.659928 0
    vertex -0.0577311 0.687975 0
    vertex -0.115462 0.755339 0
  endloop
endfacet
facet normal 0 0 1
  outer loop
    vertex 0.562555 0.148154 0
    vertex 0.591628 0.0740772 0
    vertex 0.659928 0.137489 0
  endloop
endfacet
facet normal -0 0 1
  outer loop
    vertex 0.591628 0.0740772 0
    vertex 0.68802 0.0577311 0
    vertex 0.659928 0.137489 0
  endloop
endfacet
facet normal 0 0 1
  outer loop
    vertex 0.591628 0.0740772 0
    vertex 0.620701 2.08167e-17 0
    vertex 0.68802 0.0577311 0
  endloop
endfacet
facet normal 0 0 1
  outer loop
    vertex 0.659928 0.137489 0
    vertex 0.68802 0.0577311 0
    vertex 0.755339 0.115462 0
  endloop
endfacet
facet normal 0 -0 1
  outer loop
    vertex 0.366963 -0.141461 0
    vertex 0.417339 -0.0707303 0
    vertex 0.32696 -0.0707303 0
  endloop
endfacet
facet normal 0 0 1
  outer loop
    vertex 0.417339 -0.0707303 0
    vertex 0.377336 -2.77556e-17 0
    vertex 0.32696 -0.0707303 0
  endloop
endfacet
facet normal 0 -0 1
  outer loop
    vertex 0.417339 -0.0707303 0
    vertex 0.467715 -3.46945e-18 0
    vertex 0.377336 -2.77556e-17 0
  endloop
endfacet
facet normal 0 -0 1
  outer loop
    vertex 0.32696 -0.0707303 0
    vertex 0.377336 -2.77556e-17 0
    vertex 0.286958 -5.20417e-17 0
  endloop
endfacet
facet normal 0 0 1
  outer loop
    vertex 0.286958 -5.20417e-17 0
    vertex 0.377336 -2.77556e-17 0
    vertex 0.32696 0.0707303 0
  endloop
endfacet
facet normal 0 -0 1
  outer loop
    vertex 0.377336 -2.77556e-17 0
    vertex 0.417339 0.0707303 0
    vertex 0.32696 0.0707303 0
  endloop
endfacet
facet normal 0 0 1
  outer loop
    vertex 0.377336 -2.77556e-17 0
    vertex 0.467715 -3.46945e-18 0
    vertex 0.417339 0.0707303 0
  endloop
endfacet
facet normal 0 0 1
  outer loop
    vertex 0.32696 0.0707303 0
    vertex 0.417339 0.0707303 0
    vertex 0.366963 0.141461 0
  endloop
endfacet
facet normal 0 -0 1
  outer loop
    vertex 3.46945e-18 0.304857 0
    vertex 5.55112e-17 0.386062 0
    vertex -0.0707303 0.33591 0
  endloop
endfacet
facet normal 0 0 1
  outer loop
    vertex 5.55112e-17 0.386062 0
    vertex -0.0707303 0.417114 0
    vertex -0.0707303 0.33591 0
  endloop
endfacet
facet normal 0 -0 1
  outer loop
    vertex 5.55112e-17 0.386062 0
    vertex 1.11022e-16 0.467266 0
    vertex -0.0707303 0.417114 0
  endloop
endfacet
facet normal 0 -0 1
  outer loop
    vertex -0.0707303 0.33591 0
    vertex -0.0707303 0.417114 0
    vertex -0.141461 0.366963 0
  endloop
endfacet
facet normal 0 0 1
  outer loop
    vertex 0.141461 0.366963 0
    vertex 0.0707303 0.417114 0
    vertex 0.0707303 0.33591 0
  endloop
endfacet
facet normal 0 0 1
  outer loop
    vertex 0.0707303 0.417114 0
    vertex 5.55112e-17 0.386062 0
    vertex 0.0707303 0.33591 0
  endloop
endfacet
facet normal 0 0 1
  outer loop
    vertex 0.0707303 0.417114 0
    vertex 1.11022e-16 0.467266 0
    vertex 5.55112e-17 0.386062 0
  endloop
endfacet
facet normal 0 0 1
  outer loop
    vertex 0.0707303 0.33591 0
    vertex 5.55112e-17 0.386062 0
    vertex 3.46945e-18 0.304857 0
  endloop
endfacet
facet normal -0 0 1
  outer loop
    vertex -0.0737618 0.0857772 0
    vertex -0.0273741 0.0723588 0
    vertex -0.0296882 0.107356 0
  endloop
endfacet
facet normal 0 -0 1
  outer loop
    vertex -0.0273741 0.0723588 0
    vertex 0.0166995 0.0939372 0
    vertex -0.0296882 0.107356 0
  endloop
endfacet
facet normal -0 0 1
  outer loop
    vertex -0.0273741 0.0723588 0
    vertex 0.0190135 0.0589405 0
    vertex 0.0166995 0.0939372 0
  endloop
endfacet
facet normal -0 0 1
  outer loop
    vertex -0.0296882 0.107356 0
    vertex 0.0166995 0.0939372 0
    vertex 0.0143854 0.128934 0
  endloop
endfacet
facet normal 0 0 1
  outer loop
    vertex 0.0832446 -0.83275 0
    vertex 0.0416223 -0.763288 0
    vertex -3.84743e-16 -0.9 0
  endloop
endfacet
facet normal 0 0 1
  outer loop
    vertex 0.0416223 -0.763288 0
    vertex -0.0416223 -0.763288 0
    vertex -3.84743e-16 -0.9 0
  endloop
endfacet
facet normal 0 0 1
  outer loop
    vertex 0.0416223 -0.763288 0
    vertex -7.70217e-16 -0.693825 0
    vertex -0.0416223 -0.763288 0
  endloop
endfacet
facet normal 0 0 1
  outer loop
    vertex -3.84743e-16 -0.9 0
    vertex -0.0416223 -0.763288 0
    vertex -0.0832446 -0.83275 0
  endloop
endfacet
facet normal 0 -0 1
  outer loop
    vertex -0.83275 -0.0832446 0
    vertex -0.763288 -0.0416223 0
    vertex -0.9 4.84663e-16 0
  endloop
endfacet
facet normal 0 -0 1
  outer loop
    vertex -0.763288 -0.0416223 0
    vertex -0.763288 0.0416223 0
    vertex -0.9 4.84663e-16 0
  endloop
endfacet
facet normal 0 0 1
  outer loop
    vertex -0.763288 -0.0416223 0
    vertex -0.693825 7.14706e-16 0
    vertex -0.763288 0.0416223 0
  endloop
endfacet
facet normal 0 0 1
  outer loop
    vertex -0.9 4.84663e-16 0
    vertex -0.763288 0.0416223 0
    vertex -0.83275 0.0832446 0
  endloop
endfacet
facet normal 0 0 1
  outer loop
    vertex 0.0190135 0.0589405 0
    vertex -0.0215592 0.0382994 0
    vertex 0.00897079 0.0277905 0
  endloop
endfacet
facet normal 0 0 1
  outer loop
    vertex -0.0215592 0.0382994 0
    vertex -0.031602 0.00714943 0
    vertex 0.00897079 0.0277905 0
  endloop
endfacet
facet normal 0 0 1
  outer loop
    vertex -0.0215592 0.0382994 0
    vertex -0.062132 0.0176583 0
    vertex -0.031602 0.00714943 0
  endloop
endfacet
facet normal 0 0 1
  outer loop
    vertex 0.00897079 0.0277905 0
    vertex -0.031602 0.00714943 0
    vertex -0.00107194 -0.00335941 0
  endloop
endfacet
facet normal 0 0 1
  outer loop
    vertex 0.0894406 0.178887 0
    vertex 0.0448197 0.191964 0
    vertex 0.051913 0.15391 0
  endloop
endfacet
facet normal 0 0 1
  outer loop
    vertex 0.0448197 0.191964 0
    vertex 0.00729212 0.166988 0
    vertex 0.051913 0.15391 0
  endloop
endfacet
facet normal 0 0 1
  outer loop
    vertex 0.0448197 0.191964 0
    vertex 0.000198833 0.205042 0
    vertex 0.00729212 0.166988 0
  endloop
endfacet
facet normal 0 0 1
  outer loop
    vertex 0.051913 0.15391 0
    vertex 0.00729212 0.166988 0
    vertex 0.0143854 0.128934 0
  endloop
endfacet
facet normal 0 0 1
  outer loop
    vertex 0.144716 -0.394771 0
    vertex 0.0722487 -0.451255 0
    vertex 0.14998 -0.506592 0
  endloop
endfacet
facet normal 0 0 1
  outer loop
    vertex 0.0722487 -0.451255 0
    vertex 0.0715334 -0.563037 0
    vertex 0.14998 -0.506592 0
  endloop
endfacet
facet normal 0 0 1
  outer loop
    vertex 0.0722487 -0.451255 0
    vertex -0.000218986 -0.507739 0
    vertex 0.0715334 -0.563037 0
  endloop
endfacet
facet normal 0 0 1
  outer loop
    vertex 0.14998 -0.506592 0
    vertex 0.0715334 -0.563037 0
    vertex 0.143286 -0.618335 0
  endloop
endfacet
facet normal 0 0 1
  outer loop
    vertex -0.394771 -0.144716 0
    vertex -0.451764 -0.0721379 0
    vertex -0.506592 -0.14998 0
  endloop
endfacet
facet normal 0 0 1
  outer loop
    vertex -0.451764 -0.0721379 0
    vertex -0.563546 -0.0714225 0
    vertex -0.506592 -0.14998 0
  endloop
endfacet
facet normal 0 0 1
  outer loop
    vertex -0.451764 -0.0721379 0
    vertex -0.508757 0.000440689 0
    vertex -0.563546 -0.0714225 0
  endloop
endfacet
facet normal 0 0 1
  outer loop
    vertex -0.506592 -0.14998 0
    vertex -0.563546 -0.0714225 0
    vertex -0.618335 -0.143286 0
  endloop
endfacet
facet normal 0 -0 1
  outer loop
    vertex -0.143286 -0.618335 0
    vertex -0.0717524 -0.563037 0
    vertex -0.14998 -0.506592 0
  endloop
endfacet
facet normal 0 0 1
  outer loop
    vertex -0.0717524 -0.563037 0
    vertex -0.0724677 -0.451255 0
    vertex -0.14998 -0.506592 0
  endloop
endfacet
facet normal 0 -0 1
  outer loop
    vertex -0.0717524 -0.563037 0
    vertex -0.000218986 -0.507739 0
    vertex -0.0724677 -0.451255 0
  endloop
endfacet
facet normal 0 0 1
  outer loop
    vertex -0.14998 -0.506592 0
    vertex -0.0724677 -0.451255 0
    vertex -0.144716 -0.394771 0
  endloop
endfacet
facet normal -0 0 1
  outer loop
    vertex -0.618335 0.143286 0
    vertex -0.563546 0.0718632 0
    vertex -0.506592 0.14998 0
  endloop
endfacet
facet normal 0 0 1
  outer loop
    vertex -0.563546 0.0718632 0
    vertex -0.451764 0.0725786 0
    vertex -0.506592 0.14998 0
  endloop
endfacet
facet normal -0 0 1
  outer loop
    vertex -0.563546 0.0718632 0
    vertex -0.508757 0.000440689 0
    vertex -0.451764 0.0725786 0
  endloop
endfacet
facet normal 0 0 1
  outer loop
    vertex -0.506592 0.14998 0
    vertex -0.451764 0.0725786 0
    vertex -0.394771 0.144716 0
  endloop
endfacet
facet normal 0 0 1
  outer loop
    vertex 0.0882313 0.113794 0
    vertex 0.0536224 0.0863672 0
    vertex 0.0941221 0.0837508 0
  endloop
endfacet
facet normal 0 0 1
  outer loop
    vertex 0.0536224 0.0863672 0
    vertex 0.0595132 0.056324 0
    vertex 0.0941221 0.0837508 0
  endloop
endfacet
facet normal 0 0 1
  outer loop
    vertex 0.0536224 0.0863672 0
    vertex 0.0190135 0.0589405 0
    vertex 0.0595132 0.056324 0
  endloop
endfacet
facet normal 0 0 1
  outer loop
    vertex 0.0941221 0.0837508 0
    vertex 0.0595132 0.056324 0
    vertex 0.100013 0.0537075 0
  endloop
endfacet
facet normal 0 0 1
  outer loop
    vertex 0.467715 -3.46945e-18 0
    vertex 0.544208 1.04083e-17 0
    vertex 0.515135 0.0740772 0
  endloop
endfacet
facet normal 0 -0 1
  outer loop
    vertex 0.544208 1.04083e-17 0
    vertex 0.591628 0.0740772 0
    vertex 0.515135 0.0740772 0
  endloop
endfacet
facet normal 0 0 1
  outer loop
    vertex 0.544208 1.04083e-17 0
    vertex 0.620701 2.08167e-17 0
    vertex 0.591628 0.0740772 0
  endloop
endfacet
facet normal 0 0 1
  outer loop
    vertex 0.515135 0.0740772 0
    vertex 0.591628 0.0740772 0
    vertex 0.562555 0.148154 0
  endloop
endfacet
facet normal 0 0 1
  outer loop
    vertex 1.11022e-16 0.467266 0
    vertex 6.59195e-17 0.543938 0
    vertex -0.0740772 0.514911 0
  endloop
endfacet
facet normal 0 0 1
  outer loop
    vertex 6.59195e-17 0.543938 0
    vertex -0.0740772 0.591583 0
    vertex -0.0740772 0.514911 0
  endloop
endfacet
facet normal 0 0 1
  outer loop
    vertex 6.59195e-17 0.543938 0
    vertex 2.08167e-17 0.620611 0
    vertex -0.0740772 0.591583 0
  endloop
endfacet
facet normal 0 0 1
  outer loop
    vertex -0.0740772 0.514911 0
    vertex -0.0740772 0.591583 0
    vertex -0.148154 0.562555 0
  endloop
endfacet
facet normal 0 -0 1
  outer loop
    vertex 0.562555 -0.148154 0
    vertex 0.591628 -0.0740772 0
    vertex 0.515135 -0.0740772 0
  endloop
endfacet
facet normal 0 0 1
  outer loop
    vertex 0.591628 -0.0740772 0
    vertex 0.544208 1.04083e-17 0
    vertex 0.515135 -0.0740772 0
  endloop
endfacet
facet normal 0 -0 1
  outer loop
    vertex 0.591628 -0.0740772 0
    vertex 0.620701 2.08167e-17 0
    vertex 0.544208 1.04083e-17 0
  endloop
endfacet
facet normal 0 -0 1
  outer loop
    vertex 0.515135 -0.0740772 0
    vertex 0.544208 1.04083e-17 0
    vertex 0.467715 -3.46945e-18 0
  endloop
endfacet
facet normal 0 0 1
  outer loop
    vertex 0.148154 0.562555 0
    vertex 0.0740772 0.591583 0
    vertex 0.0740772 0.514911 0
  endloop
endfacet
facet normal 0 0 1
  outer loop
    vertex 0.0740772 0.591583 0
    vertex 6.59195e-17 0.543938 0
    vertex 0.0740772 0.514911 0
  endloop
endfacet
facet normal 0 0 1
  outer loop
    vertex 0.0740772 0.591583 0
    vertex 2.08167e-17 0.620611 0
    vertex 6.59195e-17 0.543938 0
  endloop
endfacet
facet normal 0 0 1
  outer loop
    vertex 0.0740772 0.514911 0
    vertex 6.59195e-17 0.543938 0
    vertex 1.11022e-16 0.467266 0
  endloop
endfacet
facet normal 0 0 1
  outer loop
    vertex -0.178887 0.0894406 0
    vertex -0.201844 0.0447203 0
    vertex -0.155129 0.0473135 0
  endloop
endfacet
facet normal -0 0 1
  outer loop
    vertex -0.201844 0.0447203 0
    vertex -0.178086 0.00259318 0
    vertex -0.155129 0.0473135 0
  endloop
endfacet
facet normal 0 0 1
  outer loop
    vertex -0.201844 0.0447203 0
    vertex -0.224802 -6.93889e-18 0
    vertex -0.178086 0.00259318 0
  endloop
endfacet
facet normal 0 0 1
  outer loop
    vertex -0.155129 0.0473135 0
    vertex -0.178086 0.00259318 0
    vertex -0.131371 0.00518635 0
  endloop
endfacet
facet normal 0 0 1
  outer loop
    vertex -0.131371 0.00518635 0
    vertex -0.178086 0.00259318 0
    vertex -0.155129 -0.0421271 0
  endloop
endfacet
facet normal 0 0 1
  outer loop
    vertex -0.178086 0.00259318 0
    vertex -0.201844 -0.0447203 0
    vertex -0.155129 -0.0421271 0
  endloop
endfacet
facet normal 0 0 1
  outer loop
    vertex -0.178086 0.00259318 0
    vertex -0.224802 -6.93889e-18 0
    vertex -0.201844 -0.0447203 0
  endloop
endfacet
facet normal 0 0 1
  outer loop
    vertex -0.155129 -0.0421271 0
    vertex -0.201844 -0.0447203 0
    vertex -0.178887 -0.0894406 0
  endloop
endfacet
facet normal 0 -0 1
  outer loop
    vertex 0.00740349 -0.132309 0
    vertex 0.0132862 -0.0961727 0
    vertex -0.0311781 -0.102313 0
  endloop
endfacet
facet normal 0 0 1
  outer loop
    vertex 0.0132862 -0.0961727 0
    vertex -0.0252955 -0.0661768 0
    vertex -0.0311781 -0.102313 0
  endloop
endfacet
facet normal 0 -0 1
  outer loop
    vertex 0.0132862 -0.0961727 0
    vertex 0.0191688 -0.0600362 0
    vertex -0.0252955 -0.0661768 0
  endloop
endfacet
facet normal 0 -0 1
  outer loop
    vertex -0.0311781 -0.102313 0
    vertex -0.0252955 -0.0661768 0
    vertex -0.0697598 -0.0723174 0
  endloop
endfacet
facet normal 0 0 1
  outer loop
    vertex 0.0143854 0.128934 0
    vertex 0.0166995 0.0939372 0
    vertex 0.0513083 0.121364 0
  endloop
endfacet
facet normal -0 0 1
  outer loop
    vertex 0.0166995 0.0939372 0
    vertex 0.0536224 0.0863672 0
    vertex 0.0513083 0.121364 0
  endloop
endfacet
facet normal 0 0 1
  outer loop
    vertex 0.0166995 0.0939372 0
    vertex 0.0190135 0.0589405 0
    vertex 0.0536224 0.0863672 0
  endloop
endfacet
facet normal 0 0 1
  outer loop
    vertex 0.0513083 0.121364 0
    vertex 0.0536224 0.0863672 0
    vertex 0.0882313 0.113794 0
  endloop
endfacet
facet normal 0 0 1
  outer loop
    vertex 0.0950118 -0.0846911 0
    vertex 0.0570903 -0.0723637 0
    vertex 0.0512077 -0.1085 0
  endloop
endfacet
facet normal 0 0 1
  outer loop
    vertex 0.0570903 -0.0723637 0
    vertex 0.0132862 -0.0961727 0
    vertex 0.0512077 -0.1085 0
  endloop
endfacet
facet normal 0 0 1
  outer loop
    vertex 0.0570903 -0.0723637 0
    vertex 0.0191688 -0.0600362 0
    vertex 0.0132862 -0.0961727 0
  endloop
endfacet
facet normal 0 0 1
  outer loop
    vertex 0.0512077 -0.1085 0
    vertex 0.0132862 -0.0961727 0
    vertex 0.00740349 -0.132309 0
  endloop
endfacet
facet normal 0 0 1
  outer loop
    vertex 0.00740349 -0.132309 0
    vertex 0.00370174 -0.175673 0
    vertex 0.048422 -0.155598 0
  endloop
endfacet
facet normal -0 0 1
  outer loop
    vertex 0.00370174 -0.175673 0
    vertex 0.0447203 -0.198962 0
    vertex 0.048422 -0.155598 0
  endloop
endfacet
facet normal 0 0 1
  outer loop
    vertex 0.00370174 -0.175673 0
    vertex 0 -0.219037 0
    vertex 0.0447203 -0.198962 0
  endloop
endfacet
facet normal 0 0 1
  outer loop
    vertex 0.048422 -0.155598 0
    vertex 0.0447203 -0.198962 0
    vertex 0.0894406 -0.178887 0
  endloop
endfacet
facet normal -0 0 1
  outer loop
    vertex 0.0143854 0.128934 0
    vertex 0.0513083 0.121364 0
    vertex 0.051913 0.15391 0
  endloop
endfacet
facet normal 0 0 1
  outer loop
    vertex 0.0513083 0.121364 0
    vertex 0.0888359 0.14634 0
    vertex 0.051913 0.15391 0
  endloop
endfacet
facet normal -0 0 1
  outer loop
    vertex 0.0513083 0.121364 0
    vertex 0.0882313 0.113794 0
    vertex 0.0888359 0.14634 0
  endloop
endfacet
facet normal -0 0 1
  outer loop
    vertex 0.051913 0.15391 0
    vertex 0.0888359 0.14634 0
    vertex 0.0894406 0.178887 0
  endloop
endfacet
facet normal 0 0 1
  outer loop
    vertex -0.000218986 -0.507739 0
    vertex -0.000109493 -0.600782 0
    vertex 0.0715334 -0.563037 0
  endloop
endfacet
facet normal -0 0 1
  outer loop
    vertex -0.000109493 -0.600782 0
    vertex 0.0716429 -0.65608 0
    vertex 0.0715334 -0.563037 0
  endloop
endfacet
facet normal 0 0 1
  outer loop
    vertex -0.000109493 -0.600782 0
    vertex -7.70217e-16 -0.693825 0
    vertex 0.0716429 -0.65608 0
  endloop
endfacet
facet normal 0 0 1
  outer loop
    vertex 0.0715334 -0.563037 0
    vertex 0.0716429 -0.65608 0
    vertex 0.143286 -0.618335 0
  endloop
endfacet
facet normal -0 0 1
  outer loop
    vertex -0.143286 -0.618335 0
    vertex -0.0716429 -0.65608 0
    vertex -0.0717524 -0.563037 0
  endloop
endfacet
facet normal 0 -0 1
  outer loop
    vertex -0.0716429 -0.65608 0
    vertex -0.000109493 -0.600782 0
    vertex -0.0717524 -0.563037 0
  endloop
endfacet
facet normal -0 0 1
  outer loop
    vertex -0.0716429 -0.65608 0
    vertex -7.70217e-16 -0.693825 0
    vertex -0.000109493 -0.600782 0
  endloop
endfacet
facet normal -0 0 1
  outer loop
    vertex -0.0717524 -0.563037 0
    vertex -0.000109493 -0.600782 0
    vertex -0.000218986 -0.507739 0
  endloop
endfacet
facet normal 0 0 1
  outer loop
    vertex -0.508757 0.000440689 0
    vertex -0.601291 0.000220345 0
    vertex -0.563546 -0.0714225 0
  endloop
endfacet
facet normal 0 0 1
  outer loop
    vertex -0.601291 0.000220345 0
    vertex -0.65608 -0.0716429 0
    vertex -0.563546 -0.0714225 0
  endloop
endfacet
facet normal 0 0 1
  outer loop
    vertex -0.601291 0.000220345 0
    vertex -0.693825 7.14706e-16 0
    vertex -0.65608 -0.0716429 0
  endloop
endfacet
facet normal 0 0 1
  outer loop
    vertex -0.563546 -0.0714225 0
    vertex -0.65608 -0.0716429 0
    vertex -0.618335 -0.143286 0
  endloop
endfacet
facet normal 0 0 1
  outer loop
    vertex -0.618335 0.143286 0
    vertex -0.65608 0.0716429 0
    vertex -0.563546 0.0718632 0
  endloop
endfacet
facet normal -0 0 1
  outer loop
    vertex -0.65608 0.0716429 0
    vertex -0.601291 0.000220345 0
    vertex -0.563546 0.0718632 0
  endloop
endfacet
facet normal 0 0 1
  outer loop
    vertex -0.65608 0.0716429 0
    vertex -0.693825 7.14706e-16 0
    vertex -0.601291 0.000220345 0
  endloop
endfacet
facet normal 0 0 1
  outer loop
    vertex -0.563546 0.0718632 0
    vertex -0.601291 0.000220345 0
    vertex -0.508757 0.000440689 0
  endloop
endfacet
facet normal 0 0 1
  outer loop
    vertex 0.100013 0.0537075 0
    vertex 0.0595132 0.056324 0
    vertex 0.082177 0.0239919 0
  endloop
endfacet
facet normal 0 0 1
  outer loop
    vertex 0.0595132 0.056324 0
    vertex 0.0416773 0.0266083 0
    vertex 0.082177 0.0239919 0
  endloop
endfacet
facet normal 0 0 1
  outer loop
    vertex 0.0595132 0.056324 0
    vertex 0.0190135 0.0589405 0
    vertex 0.0416773 0.0266083 0
  endloop
endfacet
facet normal 0 0 1
  outer loop
    vertex 0.082177 0.0239919 0
    vertex 0.0416773 0.0266083 0
    vertex 0.0643411 -0.00572383 0
  endloop
endfacet
facet normal 0 0 1
  outer loop
    vertex 0.0643411 -0.00572383 0
    vertex 0.0416773 0.0266083 0
    vertex 0.0316346 -0.00454162 0
  endloop
endfacet
facet normal 0 0 1
  outer loop
    vertex 0.0416773 0.0266083 0
    vertex 0.00897079 0.0277905 0
    vertex 0.0316346 -0.00454162 0
  endloop
endfacet
facet normal 0 0 1
  outer loop
    vertex 0.0416773 0.0266083 0
    vertex 0.0190135 0.0589405 0
    vertex 0.00897079 0.0277905 0
  endloop
endfacet
facet normal 0 0 1
  outer loop
    vertex 0.0316346 -0.00454162 0
    vertex 0.00897079 0.0277905 0
    vertex -0.00107194 -0.00335941 0
  endloop
endfacet
facet normal 0 0 1
  outer loop
    vertex 0.0643411 -0.00572383 0
    vertex 0.041755 -0.03288 0
    vertex 0.0796765 -0.0452075 0
  endloop
endfacet
facet normal 0 0 1
  outer loop
    vertex 0.041755 -0.03288 0
    vertex 0.0570903 -0.0723637 0
    vertex 0.0796765 -0.0452075 0
  endloop
endfacet
facet normal 0 0 1
  outer loop
    vertex 0.041755 -0.03288 0
    vertex 0.0191688 -0.0600362 0
    vertex 0.0570903 -0.0723637 0
  endloop
endfacet
facet normal 0 0 1
  outer loop
    vertex 0.0796765 -0.0452075 0
    vertex 0.0570903 -0.0723637 0
    vertex 0.0950118 -0.0846911 0
  endloop
endfacet
facet normal 0 0 1
  outer loop
    vertex 0.144716 -0.394771 0
    vertex 0.07234 -0.35356 0
    vertex 0.0722487 -0.451255 0
  endloop
endfacet
facet normal 0 0 1
  outer loop
    vertex 0.07234 -0.35356 0
    vertex -0.000127742 -0.410044 0
    vertex 0.0722487 -0.451255 0
  endloop
endfacet
facet normal 0 0 1
  outer loop
    vertex 0.07234 -0.35356 0
    vertex -3.64977e-05 -0.312349 0
    vertex -0.000127742 -0.410044 0
  endloop
endfacet
facet normal 0 0 1
  outer loop
    vertex 0.0722487 -0.451255 0
    vertex -0.000127742 -0.410044 0
    vertex -0.000218986 -0.507739 0
  endloop
endfacet
facet normal 0 0 1
  outer loop
    vertex -0.00107194 -0.00335941 0
    vertex 0.00904845 -0.0316978 0
    vertex 0.0316346 -0.00454162 0
  endloop
endfacet
facet normal -0 0 1
  outer loop
    vertex 0.00904845 -0.0316978 0
    vertex 0.041755 -0.03288 0
    vertex 0.0316346 -0.00454162 0
  endloop
endfacet
facet normal 0 0 1
  outer loop
    vertex 0.00904845 -0.0316978 0
    vertex 0.0191688 -0.0600362 0
    vertex 0.041755 -0.03288 0
  endloop
endfacet
facet normal 0 0 1
  outer loop
    vertex 0.0316346 -0.00454162 0
    vertex 0.041755 -0.03288 0
    vertex 0.0643411 -0.00572383 0
  endloop
endfacet
facet normal 0 -0 1
  outer loop
    vertex -0.394771 -0.144716 0
    vertex -0.367585 -0.0633701 0
    vertex -0.451764 -0.0721379 0
  endloop
endfacet
facet normal 0 0 1
  outer loop
    vertex -0.367585 -0.0633701 0
    vertex -0.424578 0.00920847 0
    vertex -0.451764 -0.0721379 0
  endloop
endfacet
facet normal 0 -0 1
  outer loop
    vertex -0.367585 -0.0633701 0
    vertex -0.340398 0.0179762 0
    vertex -0.424578 0.00920847 0
  endloop
endfacet
facet normal 0 -0 1
  outer loop
    vertex -0.451764 -0.0721379 0
    vertex -0.424578 0.00920847 0
    vertex -0.508757 0.000440689 0
  endloop
endfacet
facet normal 0 -0 1
  outer loop
    vertex -0.000218986 -0.507739 0
    vertex -0.000127742 -0.410044 0
    vertex -0.0724677 -0.451255 0
  endloop
endfacet
facet normal 0 0 1
  outer loop
    vertex -0.000127742 -0.410044 0
    vertex -0.0723765 -0.35356 0
    vertex -0.0724677 -0.451255 0
  endloop
endfacet
facet normal 0 -0 1
  outer loop
    vertex -0.000127742 -0.410044 0
    vertex -3.64977e-05 -0.312349 0
    vertex -0.0723765 -0.35356 0
  endloop
endfacet
facet normal 0 -0 1
  outer loop
    vertex -0.0724677 -0.451255 0
    vertex -0.0723765 -0.35356 0
    vertex -0.144716 -0.394771 0
  endloop
endfacet
facet normal 0 0 1
  outer loop
    vertex -0.508757 0.000440689 0
    vertex -0.424578 0.00920847 0
    vertex -0.451764 0.0725786 0
  endloop
endfacet
facet normal 0 -0 1
  outer loop
    vertex -0.424578 0.00920847 0
    vertex -0.367585 0.0813464 0
    vertex -0.451764 0.0725786 0
  endloop
endfacet
facet normal 0 0 1
  outer loop
    vertex -0.424578 0.00920847 0
    vertex -0.340398 0.0179762 0
    vertex -0.367585 0.0813464 0
  endloop
endfacet
facet normal 0 0 1
  outer loop
    vertex -0.451764 0.0725786 0
    vertex -0.367585 0.0813464 0
    vertex -0.394771 0.144716 0
  endloop
endfacet
facet normal 0 0 1
  outer loop
    vertex 0.0894406 0.178887 0
    vertex 0.0888359 0.14634 0
    vertex 0.116941 0.162249 0
  endloop
endfacet
facet normal -0 0 1
  outer loop
    vertex 0.0888359 0.14634 0
    vertex 0.114826 0.127608 0
    vertex 0.116941 0.162249 0
  endloop
endfacet
facet normal 0 0 1
  outer loop
    vertex 0.0888359 0.14634 0
    vertex 0.0882313 0.113794 0
    vertex 0.114826 0.127608 0
  endloop
endfacet
facet normal 0 0 1
  outer loop
    vertex 0.116941 0.162249 0
    vertex 0.114826 0.127608 0
    vertex 0.141421 0.141421 0
  endloop
endfacet
facet normal 0 0 1
  outer loop
    vertex -0.178887 0.0894406 0
    vertex -0.259642 0.0537084 0
    vertex -0.201844 0.0447203 0
  endloop
endfacet
facet normal 0 0 1
  outer loop
    vertex -0.259642 0.0537084 0
    vertex -0.2826 0.00898812 0
    vertex -0.201844 0.0447203 0
  endloop
endfacet
facet normal 0 0 1
  outer loop
    vertex -0.259642 0.0537084 0
    vertex -0.340398 0.0179762 0
    vertex -0.2826 0.00898812 0
  endloop
endfacet
facet normal 0 0 1
  outer loop
    vertex -0.201844 0.0447203 0
    vertex -0.2826 0.00898812 0
    vertex -0.224802 -6.93889e-18 0
  endloop
endfacet
facet normal 0 0 1
  outer loop
    vertex -0.178887 -0.0894406 0
    vertex -0.201844 -0.0447203 0
    vertex -0.284374 -0.12634 0
  endloop
endfacet
facet normal 0 0 1
  outer loop
    vertex -0.201844 -0.0447203 0
    vertex -0.309787 -0.0723582 0
    vertex -0.284374 -0.12634 0
  endloop
endfacet
facet normal 0 0 1
  outer loop
    vertex -0.201844 -0.0447203 0
    vertex -0.224802 -6.93889e-18 0
    vertex -0.309787 -0.0723582 0
  endloop
endfacet
facet normal 0 0 1
  outer loop
    vertex -0.284374 -0.12634 0
    vertex -0.309787 -0.0723582 0
    vertex -0.394771 -0.144716 0
  endloop
endfacet
facet normal 0 0 1
  outer loop
    vertex -0.0894406 -0.178887 0
    vertex -0.0447385 -0.245618 0
    vertex -0.0447203 -0.198962 0
  endloop
endfacet
facet normal -0 0 1
  outer loop
    vertex -0.0447385 -0.245618 0
    vertex -1.82488e-05 -0.265693 0
    vertex -0.0447203 -0.198962 0
  endloop
endfacet
facet normal 0 0 1
  outer loop
    vertex -0.0447385 -0.245618 0
    vertex -3.64977e-05 -0.312349 0
    vertex -1.82488e-05 -0.265693 0
  endloop
endfacet
facet normal 0 0 1
  outer loop
    vertex -0.0447203 -0.198962 0
    vertex -1.82488e-05 -0.265693 0
    vertex 0 -0.219037 0
  endloop
endfacet
facet normal -0 0 1
  outer loop
    vertex 0 -0.219037 0
    vertex -1.82488e-05 -0.265693 0
    vertex 0.0447203 -0.198962 0
  endloop
endfacet
facet normal 0 0 1
  outer loop
    vertex -1.82488e-05 -0.265693 0
    vertex 0.044702 -0.245618 0
    vertex 0.0447203 -0.198962 0
  endloop
endfacet
facet normal -0 0 1
  outer loop
    vertex -1.82488e-05 -0.265693 0
    vertex -3.64977e-05 -0.312349 0
    vertex 0.044702 -0.245618 0
  endloop
endfacet
facet normal -0 0 1
  outer loop
    vertex 0.0447203 -0.198962 0
    vertex 0.044702 -0.245618 0
    vertex 0.0894406 -0.178887 0
  endloop
endfacet
endsolid Created by Gmsh
