<?xml version="1.0" standalone="no"?>
<!DOCTYPE svg PUBLIC "-//W3C//DTD SVG 1.1//EN" "http://www.w3.org/Graphics/SVG/1.1/DTD/svg11.dtd">

<svg width="384.0" height="300.0" viewBox="0 0 384.0 300.0" version="1.1" xmlns="http://www.w3.org/2000/svg" xmlns:xlink="http://www.w3.org/1999/xlink">
<!-- automatically generated by aafigure --><text x="59.0" y="70.89999999999999" font-family="monospace" font-size="14.0" fill="#000000" >
  bc_dir
</text>
<text x="157.0" y="98.89999999999999" font-family="monospace" font-size="14.0" fill="#000000" >
  bc_config
</text>
<text x="59.0" y="126.89999999999999" font-family="monospace" font-size="14.0" fill="#000000" >
  ic_dir
</text>
<text x="157.0" y="154.9" font-family="monospace" font-size="14.0" fill="#000000" >
  ic_config
</text>
<text x="59.0" y="182.9" font-family="monospace" font-size="14.0" fill="#000000" >
  model_dir
</text>
<text x="157.0" y="210.9" font-family="monospace" font-size="14.0" fill="#000000" >
  model_config
</text>
<text x="59.0" y="238.90000000000003" font-family="monospace" font-size="14.0" fill="#000000" >
  ref_sol_dir
</text>
<text x="157.0" y="266.90000000000003" font-family="monospace" font-size="14.0" fill="#000000" >
  ref_sol_config
</text>
<line x1="10.0" y1="17.0" x2="10.0" y2="38.0" stroke="#000000" stroke-width="2.0" />
<line x1="10.0" y1="38.0" x2="45.0" y2="38.0" stroke="#000000" stroke-width="2.0" />
<line x1="10.0" y1="38.0" x2="10.0" y2="66.0" stroke="#000000" stroke-width="2.0" />
<line x1="10.0" y1="66.0" x2="45.0" y2="66.0" stroke="#000000" stroke-width="2.0" />
<line x1="10.0" y1="66.0" x2="10.0" y2="122.0" stroke="#000000" stroke-width="2.0" />
<line x1="108.0" y1="73.0" x2="108.0" y2="94.0" stroke="#000000" stroke-width="2.0" />
<line x1="108.0" y1="94.0" x2="143.0" y2="94.0" stroke="#000000" stroke-width="2.0" />
<line x1="10.0" y1="122.0" x2="45.0" y2="122.0" stroke="#000000" stroke-width="2.0" />
<line x1="10.0" y1="122.0" x2="10.0" y2="178.0" stroke="#000000" stroke-width="2.0" />
<line x1="108.0" y1="129.0" x2="108.0" y2="150.0" stroke="#000000" stroke-width="2.0" />
<line x1="108.0" y1="150.0" x2="143.0" y2="150.0" stroke="#000000" stroke-width="2.0" />
<line x1="10.0" y1="178.0" x2="45.0" y2="178.0" stroke="#000000" stroke-width="2.0" />
<line x1="10.0" y1="178.0" x2="10.0" y2="234.0" stroke="#000000" stroke-width="2.0" />
<line x1="108.0" y1="185.0" x2="108.0" y2="206.0" stroke="#000000" stroke-width="2.0" />
<line x1="108.0" y1="206.0" x2="143.0" y2="206.0" stroke="#000000" stroke-width="2.0" />
<line x1="10.0" y1="234.0" x2="45.0" y2="234.0" stroke="#000000" stroke-width="2.0" />
<line x1="10.0" y1="234.0" x2="10.0" y2="290.0" stroke="#000000" stroke-width="2.0" />
<line x1="108.0" y1="241.0" x2="108.0" y2="262.0" stroke="#000000" stroke-width="2.0" />
<line x1="108.0" y1="262.0" x2="143.0" y2="262.0" stroke="#000000" stroke-width="2.0" />
<line x1="10.0" y1="290.0" x2="45.0" y2="290.0" stroke="#000000" stroke-width="2.0" />
<text x="3.0" y="14.9" font-family="monospace" font-size="14.0" fill="#000000" >
  simulation
</text>
<text x="59.0" y="42.9" font-family="monospace" font-size="14.0" fill="#000000" >
  config
</text>
<text x="59.0" y="294.90000000000003" font-family="monospace" font-size="14.0" fill="#000000" >
  output
</text>
</svg>
